<svg height="163.3" viewBox="0 0 149.1 163.3" width="149.1" xmlns="http://www.w3.org/2000/svg"><path d="m100 121.9c.9.9 1.9 2.5 3.5.7l-3.9-4c-2.2 1.6-.3 2.5.4 3.3z" fill="none"/><path d="m95.6 121.6a.7.7 0 0 0 0 1l2.5 2.7.7-.6z" fill="none"/><path d="m101.6 119.6c1.2 1 1.9 3.5 4.7 2l-5.6-5.8c-1.6 2-.1 3 .9 3.8z" fill="none"/><path d="m110 119.8a1.1 1.1 0 0 0 -1.2 0l2.6 3.7c1-2.4-.4-2.9-1.4-3.7z" fill="none"/><path d="m101.5 134.2a37.1 37.1 0 0 1 2.9 2.7l-2.2-3.4z" fill="none"/><path d="m96.5 121.4c1.5.9 2.1 3 4.7 2.9-3.4-3.9-3.4-3.9-4.7-2.9z" fill="none"/><path d="m109.9 137.9c0-.2-.6-.5-1-.8l-1.3 3c2.2.1 2.2-1.1 2.3-2.2z" fill="none"/><path d="m107.6 121.8 1.9 2.3c-1.9.2-2.4-3.3-4.2-.8l.3.3 1.2 1.4-.4.4a6.8 6.8 0 0 1 -1.2-1.2c-1-1.3-1.7-.4-2.4.1l1.6 1.9-.4.3-2.8-1.7-.3.5 1.3 1.7-.5.4-2.2-2-.3.4 1.8 2.9 10.3-4.4c-1.4-1.1-1.7-3.2-3.7-2.5z" fill="none"/><path d="m27.9 39.6c-2.9-3.4-4.9-7.4-7.5-11.3l-2.6.2c.5.7.8 1.4 1.2 2 5 6.4 9.8 13.1 15.2 19.1 8.5 9.5 17.5 18.5 26.4 27.7a8.3 8.3 0 0 0 1.5 1.1v-2.2l-15.9-16.7c-6.2-6.6-12.4-13.1-18.3-19.9z" fill="none"/><path d="m109.6 140.5-3.6 1-.2 1.8 4-2.4z" fill="none"/><path d="m10.8 4.5a9.9 9.9 0 0 0 2.9.3c.3 0 .6-.4.9-.8a1 1 0 0 0 -.1-.9c-.2-.3-.3-.6-.7-.6a7.7 7.7 0 0 0 -2.4.6.9.9 0 0 0 -.6.8z" fill="none"/><path d="m21.2 9.1c2.9-3.1 3.4-3.2 7.4-1.5-1.3-3.2-3.6-4.7-5.7-3.7a3.7 3.7 0 0 0 -1.7 5.2z" fill="none"/><path d="m4.3 14.6a3.9 3.9 0 0 0 1.9-1.2l-.2-.7a6.2 6.2 0 0 0 -2.4-.7c.2.9.1 2.3.7 2.6z" fill="none"/><path d="m2.9 16.5c1.2 1.5 2.7.8 3.7-2z" fill="none"/><path d="m27.5 8.6v-.7l-3.5-.4 1.7 2.4z" fill="none"/><path d="m86 81.1c.5 2.7 2.2 4.4 4.7 5.9.1-3.6-3.3-4-4.7-5.9z" fill="none"/><path d="m10.7 35a23.9 23.9 0 0 1 8.1 8.6c2.7 5 6 9.7 10.8 13.2 1.5 1.1 2.6 2.8 3.9 4.3l-.4.4-2.5-2.6-.4.4c4 4.3 6.5 10 12.4 12.7 2.2 1 3.5 3.6 5.3 5.4l-.5.4-4.9-5.5-.7.5c4.8 4.4 6.9 10.1 8.5 16.2h.5l1.6-2.9 11.2 2.7v.4l-7.2-1.3c.8 2.4 1 4.9 2.3 6.3s3.9 1.6 5.5 2.2c-4.2.6-6.2-.8-7.5-5.3-.7-2.8-1.2-3.3-3.8-4.4a26.7 26.7 0 0 0 -2.2 4.1 2.6 2.6 0 0 0 .6 2c1.2 1.6 2.6 3.2 3.8 4.6l7.5 1.3v.4l-7.6-.9a78.9 78.9 0 0 0 5 8.8c.6.8 2.6 1 3.9 1s1.7-1.6 1.8-2.9l.3-1.9.7.2a38.6 38.6 0 0 1 -1.6 4.8c-.7 1.3-.5 2.1.5 2.9a23.2 23.2 0 0 0 4.6 3.1c-.5-5-2.9-10.7-4.1-17.1-.7-4.1-3.1-11.2-3.8-16.9v.6a26.9 26.9 0 0 0 -2.6-3.3c-8.6-9.1-17.3-17.9-25.7-27.2-5.9-6.5-11.8-13.1-16.4-20.7-.3-.5-1-.7-1.5-1.1l-.5.6a22.6 22.6 0 0 0 1.1 2.2c3.7 5 7.1 10.2 11.2 14.8 6.2 7.1 12.7 13.9 19.2 20.7 4.9 5.1 9.9 10.1 14.9 15.2l.4-.4c.1.7.1 1.5.2 2.2a10.9 10.9 0 0 0 -1.3-1.7c-3.7-3.8-7.6-7.5-11.2-11.3-7.7-8-15.5-15.9-22.7-24.3-4.6-5.3-8.3-11.3-12.4-17a2 2 0 0 0 -.8-.4l-.3.2a6.9 6.9 0 0 0 .7 1.5c3.1 4.2 6.1 8.4 9.2 12.5a120.5 120.5 0 0 0 8.3 10.3c4.9 5.3 10 10.3 15 15.4l15.8 16.5c.1.3.1.7.2 1l-6.3-6.4c-3.5-3.5-6.8-7.2-10.2-10.8s-9.6-9.3-14-14.3-8.1-9.8-12-14.8-5.4-7.4-8.2-11.3l-2.4 2.8-.3-.2.7-1.4-2.5.4v-.3l3.4-1.6-2-1.9v-.2l1.7.9c.8.3 1.6.9 2.3.8 2.9-.4 5.9-.9 8.8-1.5 1.3-.4 2.6-1.2 4-1.7a2.8 2.8 0 0 1 2 .1l-4.1 1.4.2.8 6.9-.5c-1.7 1.6-4 1.1-6.6 1.2 1 1.6 1.7 3.1 2.6 4.4l6.2 7.5c.3.4.4.9.7 1.4-3.9-3.9-7.5-8-9.9-12.9-.6-1.2-1.2-1.5-2.3-.7a5.7 5.7 0 0 0 .4 1.4 11.7 11.7 0 0 0 .9 2.4c2.6 5.9 7.4 10 11.6 14.7 5.8 6.4 11.9 12.6 17.8 18.9l9.6 10.1h.2a3.6 3.6 0 0 1 .2-1 7.6 7.6 0 0 0 -1.1-2.2c-1.1-1.3-2.4-2.3-3.5-3.5l-16.1-17.9c-1.9-2.1-3.5-4.4-5.3-6.6l9.5 10.3 16.6 17.7.3.2c-.1.5-.2 1-.3 1.7a5.4 5.4 0 0 1 .7-1.3s2.4-4 3.6-3.8 10 4 12.2 6.3 4.2 5.8 6.3 11 1.2 14.9 1.2 17.1-.4 12.5 0 13.5 2.5 7.2 4.6 12l.3-.4c3.6 1.5 6.9 5.1 10.5 1.1a28.3 28.3 0 0 1 -4.4-1.1c-1.4-.6-3.1-1.3-3.2-3.6l2.1.6c-1-1.4-1.7-2.9-3.6-3.4s-4.2-3.5-5.2-6.2l-.2-.5c.1.1.1.3.2.5s-.2-5.6-.1-10.2v-.2c.1-5.8.3-12.3-.1-14.2l2.8 1.6c5.6 3.9 9.4 8.9 10.6 15.7a6.5 6.5 0 0 1 0 3.1c-.6 2.6.4 4.5 2.3 6.1l2.6 2.5a3.3 3.3 0 0 0 1.8.8c.4 0 .6-1 .9-1.6a11.6 11.6 0 0 0 .6-1.5l2.4 2.3a2.9 2.9 0 0 1 -.5 4.9c-1.9 1.1-4 2-6.2 3.2a5.2 5.2 0 0 1 2 .6c2.2 2.1 3.9 1.4 6-.5s3.3-2 5.4 2.4l-1.1-1.4c-1.6-1.9-2-2-4-.5l-1.9 1.6c1.2 1.5 2.4 2.8 3.4 4.3s-.3 1.4-.7 2.2c.9-2.9-.9-4.1-2.9-5.2s-4-2.3-6.1-2.5-2.8 1.3-4.2 2.1a3.3 3.3 0 0 0 .6 1.4l12.3 5.5a3.6 3.6 0 0 0 1.4.2l9.3-.6c2.9-.2 3.4-.6 3.1-3.4s.5-3 3.4-3.4c-2.5-1.2-4.6-1.1-5.9.6s1.2 2.4 1.5 3.8c-3.2-1.2-3.2-2.9-.1-5.8-3.8-.7-6.8.3-5.4 3.9h-.1a.8.8 0 0 1 -.6-.8c-.2-1-.5-2-.1-2.3s3.3-1.7 4.9-2.6l-2.6-3.2a1.7 1.7 0 0 0 -1.2-.5h-2.3v-.4l2.3-.2a.3.3 0 0 0 .2-.5l-10.4-9-.7-.2-6.9 1.7v-.4l7.6-2.4a.4.4 0 0 0 .2-.7l-1.3-1.2-9.6-8.2c-1.2-1-1.8-2.1 0-3.3l-7-8.8a10.7 10.7 0 0 0 -3.8-3.5 8.5 8.5 0 0 1 -4.4-6.4c-.6-3.4-3-5.9-6.1-7.5s-4-2.3-6.1-3.3-4.4-3.1-4.4-6.1a.5.5 0 0 0 -.2-.4c-.2-.5-.1-1-4.3-2.4-.6-.1-.4.2-.2.3a1.6 1.6 0 0 0 .7.7l1.4.8a.7.7 0 0 1 .3.9 19 19 0 0 1 -3.7-2.2c-3.2-3.2-6.2-6.6-9.4-9.7s-4.2-3.3-6.3-5c-.2.2-.4.2-.2.7l.3.7a.3.3 0 0 1 -.2.4l-1.3-1.6a.4.4 0 0 1 .2-.7l1-.3c-.1-.2-.1-.4-.2-.6l-5.4-6.7-4.4-5.7a2.7 2.7 0 0 1 -.4-1.9c.8-3 .1-5.8-.5-8.6a53.5 53.5 0 0 1 -1.1-6.8c-.2-3.4-2.5-4.8-5.2-5.9-4.9 5.1-7.4 2.6-9.9-1l-2-.8a.6.6 0 0 1 -.1-.9 2.1 2.1 0 0 1 1.4-.2c1 .1 1.4-.1 1.9-1.3a4.5 4.5 0 0 1 1.1-1.9 14.7 14.7 0 0 0 -3.3-1l-2.8.3c-.4 1.7-.2 2.6 1.7 2.4s1.8-.7 1.3.8h-.1l-9.4-1.2a.8.8 0 0 0 -.9.8v2.3a11.3 11.3 0 0 1 -1.8-1.2c-1-1-2.1-1.5-3.3-.5l-.8.9a6 6 0 0 0 -1.3 2.5c2.8-1.5 6.8 0 5.9 4.1-.9-3.7-3.4-4.2-5.9-4.1a5.7 5.7 0 0 0 -.3 1.8c.3 2.2.3 1.6.9.3a1.2 1.2 0 0 1 .5-.5 2.1 2.1 0 0 1 1.1-.4c2.5 0 3.6 1.5 3.9 4.5a22.5 22.5 0 0 0 .9 3.5.3.3 0 0 0 .5-.1 2.2 2.2 0 0 1 1.3-2c4.2-2 7.8.3 11.4 2.6a47.9 47.9 0 0 0 5.8 3.3c2.7 1.2 3.7.6 4.3-2.4a27.6 27.6 0 0 1 .8-2.7l.6.2c-.2.7-.6 1.5-.8 2.3-.7 4.2-2 5-5.9 3a92.3 92.3 0 0 1 -9.6-5.6c-2.3-1.4-3.8-.7-5.9-.1a4.3 4.3 0 0 0 -1.3 1.6c-.2.3-.3.7-.5 1a.8.8 0 0 1 -1.4.1.9.9 0 0 0 -1.3-.1v.2a1.2 1.2 0 0 0 -.5 1c-.1 2.5-.1 4.7-.2 6.9v.3a1.7 1.7 0 0 1 .1.7c.7 2.8 2.8 4.3 5.2 5.9zm51.2 29.1c-1.7.1-4.3-1.8-4.8-3.8zm-50.6-54.8-.7-2.2a16.5 16.5 0 0 1 3.2-.6 3.4 3.4 0 0 1 .5 1.4c-.8.5-1.8.8-3 1.4zm7 3-1.3-.8 1.7-2.2 1.1.7a11.4 11.4 0 0 1 -1.5 2.3zm2.1 2.4a1.9 1.9 0 0 1 -.7-1.8c.2-.5 1.1-.7 2.2-1.2.1 1.2.4 1.9.1 2.4a1.7 1.7 0 0 1 -1.6.6zm6.8 2.5c-.3-1.3-.6-2.3-.8-3.3l1.4-.4a14.5 14.5 0 0 1 1.1 2.9 15.1 15.1 0 0 1 -1.7.8zm3.3-2.1a15.5 15.5 0 0 1 -1.4-2.9l2-1.1 1.3 3.4a11.8 11.8 0 0 1 -1.9.6zm-15.4 9.8-.3-2.5.5-.4c.1 2.8 1.2 4.6 4.3 4.3l-.2.6a9.9 9.9 0 0 1 -1.8-.2c-2.2-1.2-5.3.4-7-2.2l-.9-1.6c2 1.2 2.9 3.9 5.4 2z" fill="none"/><path d="m22.5 10.7a2.7 2.7 0 0 0 3.8.6 19.9 19.9 0 0 0 2.2-2l-.4-.5a5.2 5.2 0 0 1 -5.6 1.9z" fill="none"/><path d="m134.9 150.2c-.4-.5-1.4-.5-2.1-.7l-.2.7 1.7 2.4 1-.2c-.1-.7 0-1.7-.4-2.2z" fill="none"/><path d="m145.7 154.8c-1.1 1.1-3 1.9-2.7 4l1.6 1.9a17.3 17.3 0 0 0 1.7-2.1 8.8 8.8 0 0 0 1.1-2.4 1.7 1.7 0 0 0 -.4-1.3c-.3-.3-1.1-.4-1.3-.1z" fill="none"/><path d="m138.4 154.8a24 24 0 0 0 -3.1-2.1l-.4.6 2.6 3.1h.6c.1-.6.5-1.4.3-1.6z" fill="none"/><path d="m133.8 148.5.7-.6h.1a17.1 17.1 0 0 0 1.1-1.4h-5.1c.4.8.6 1.6 1 1.8a2.9 2.9 0 0 0 2.2.2z" fill="none"/><path d="m138.7 156.2c-.2 1.8 1.4 3.2 3.9 3.6l.4-1z" fill="none"/><path d="m148.3 153-1-4.3c-3.1 3.1-3 2.3 1 4.3z" fill="none"/><path d="m142 150.1a6.3 6.3 0 0 0 -2 1c-.3.2 0 1 .1 1.6l2.2-.9c-.1-.7-.2-1.2-.3-1.7z" fill="none"/><path d="m108.5 142.4c-1.5.7-2 2.2-1.1 3.2a1.4 1.4 0 0 0 1.4.3 1.6 1.6 0 0 0 .3-1.3c-.1-.7-.4-1.4-.6-2.2z" fill="none"/><path d="m140.3 145.2c.5-.5 1.4-.8 1.5-1.4s-.6-1.1-.9-1.7h-.6l-.7 2.5z" fill="none"/><path d="m139.7 155.6a14.4 14.4 0 0 0 2.5 2.3c1.8-3.2 1.8-3.2-1-4.3-.5.6-1.7 1.7-1.5 2z" fill="none"/><path d="m109.4 142.5c-.2.2.2 1.2.4 1.8l2.2-1.9-.5-.8a7.8 7.8 0 0 0 -2.1.9z" fill="none"/><path d="m143.3 148.5c1 0 2-.5 3-.5-.7-1.2-2.7-2.1-3.3-3.3-2.3 1.2 0 2.6.3 3.8z" fill="none"/><path d="m134.4 144.8-.3-.5-4.1.2c.1 1.7 1.4 1.4 2.3 1.3a6.7 6.7 0 0 0 2.1-1z" fill="none"/><path d="m134.8 142.5-5.5-.6c.6 2.3 2.6 2.6 5.5.6z" fill="none"/><g fill="#77a4cd"><path d="m70.4 115.8c.2 1.1.4 2.1.7 3.2a5.4 5.4 0 0 0 -.7-3.2z"/><path d="m115.8 86.1a4.6 4.6 0 0 0 -3-6 18.6 18.6 0 0 0 -12.1.6 2.2 2.2 0 0 0 -1.2 3.2l10 11.6c2.8-3.3 5.3-5.9 6.3-9.4z"/><path d="m123.8 108.7c3.1 2.8 5.9 5.9 8.9 8.9.4.4 1.1 1 1.4.9a2.8 2.8 0 0 0 1.2-1.4 11.4 11.4 0 0 0 -1.4-9.2c-2.3-4-5-7.9-7.5-11.8l-1.4-1.6c-1 3.1-1.8 5.7-2.8 8.4s-.3 4.1 1.6 5.8z"/><path d="m71.1 119.2c-.1.4.2.8.5 1.3a8.8 8.8 0 0 1 -.5-1.5z"/><path d="m5.3 28.4c0 .3.1.5.1.7a1.7 1.7 0 0 0 -.1-.7z"/><path d="m117.1 101.5c2.2 1.9 2.5 1.8 4.1-1.5a19.4 19.4 0 0 0 .9-10.3 4.7 4.7 0 0 0 -2.5-3.1c-.9-.2-2.6.9-3.4 1.8s-2.7 4.2-4 6.3a1.8 1.8 0 0 0 .3 2.7c1.6 1.3 3.1 2.8 4.6 4.1z"/><path d="m119.6 113c3.8 3.8 7.6 7.7 11.6 11.4.6.6 2.3.1 3.4.1a13.2 13.2 0 0 0 -.2-2.8c-.1-.5-.6-.8-.9-1.1l-11.2-11.1-1.6-1.5c-.5.3-1.4.5-1.8 1.1s-.4 2.8.7 3.9z"/><path d="m90.8 71.1c4.6.6 9.3.9 13.8 1.3-2-3.3-15.7-8.4-18.6-6.7.9 1.3 1.7 2.6 2.7 3.8a4 4 0 0 0 2.1 1.6z"/><path d="m99.8 79.5c2.5-.5 4.8-1.2 7.2-1.8a9.7 9.7 0 0 0 2.3-1.1l-2.1-1.4c-.2-.2-.5-.2-.8-.3a40.4 40.4 0 0 0 -14.2-1.8c2.1 2.3 3.6 4.2 5.4 5.9a2.7 2.7 0 0 0 2.2.5z"/><path d="m122.4 86.9c1.9 3.1 4.1 6 6.2 9a38.7 38.7 0 0 0 3.2 3.7c.3.2.5.1.8 0s1.8-.8 1.6-1.4-1.3-1.5-1.5-1.8c-2.6-3.9-5-7-7.7-10.9-.3-.4-1-1.2-1.5-1.3a3.5 3.5 0 0 0 -2.5.3l-.2.2c.2 1.2 1 1.3 1.6 2.2z"/><path d="m141.2 127.8a15.1 15.1 0 0 0 1.2 2.6 1.2 1.2 0 0 0 1-1.2 14 14 0 0 0 0-2.9c-.7-4.4-1.6-8.7-2.4-13-.2-1-.3-2-1.8-1.7s-1.6 1.2-1.3 2.5c1.1 4.5 2.1 9.1 3.3 13.7z"/><path d="m108.3 100.9c2.1 2.2 4.4 4.3 6.5 6.5s2.3 2 4-.9a2.6 2.6 0 0 0 -.7-1.4c-2.7-2.4-5.5-4.9-8.4-7.2-.3-.3-1.4-.1-1.8.3s-.5 1.9.4 2.7z"/><path d="m82.3 64.5c-.2-.3-1-.4-1.4-.3-2.2.7-2.9 4.5-1.1 5.9s2.6 1.2 3.6 2.2 2.9 1.2 4.7.7a3.5 3.5 0 0 0 -.3-1.2c-1.8-2.5-3.6-4.9-5.5-7.3z"/><path d="m96.3 87.6c2.5 3.1 5.2 6.2 7.9 9.1.3.4 1.3.2 1.9.2s.4-1.7.1-2.3a21.7 21.7 0 0 0 -2.4-2.9l-6.3-6.9c-1.3.8-2.2 1.6-1.2 2.8z"/><path d="m93.3 83.6c.5.6 1.1 1.6 2.1.4a3.4 3.4 0 0 0 -.6-5.2l-5.1-4.1c-1.4-1.1-2.5-.9-3.4.7s1.1.9 1.5 1.4z"/><path d="m42.7 105.8c.2-.1 1.3-.2 1.5-.6 1-2-.2-5.7-2.1-7.1a2.4 2.4 0 0 0 -3.6 1.4c-.7 2.9.1 4.2 4.2 6.3z"/><path d="m133.1 102.4c1.2 2.4 2.3 4.9 3.7 7.3a8.4 8.4 0 0 0 .6 1.4c.8.7 1.7-.9 1.9-1.9s0-.3-.1-.4c-1.3-3.2-2.8-6.4-4.3-9.7-2.4 1.3-2.6 1.6-1.8 3.3z"/><path d="m102.6 68.3c3.1 3 7.5 6.3 10.8 9.4-.1-1.4.9-1.5-.3-2.7-3-2.8-6.7-6.3-9.8-9-.2-.2-.3.2-.5.5a1.8 1.8 0 0 0 -.4 1 1.1 1.1 0 0 0 .2.8z"/><path d="m54.2 114.7c-1.7-.2-2.4.5-2.1 2.2s4.5 4.8 6.9 4.9q-.7-3.6-1.5-6.9z"/><path d="m47 102.1c-.5.3-1.4.5-1.4.8-.3 2.8-.5 5.7-.6 8.8 2.4-.2 4.5-1.1 4.4-2.8s-1.5-4.5-2.4-6.8z"/><path d="m46 93.8c-1.2 0-2.3 1.8-3.6 2.9 3.5 3.6 4.1 3.7 7.8 1.1-.6-2.7-1.6-4.1-4.2-4z"/><path d="m42.1 91.3c-3.2-1-4.6-.6-5.7 1.6s.9 3.1 1.9 3.5 4.7-.7 5-2.3-.7-1.9-1.2-2.8z"/><path d="m114.4 78.5c1.4 1.8 2.8 3.6 4.3 5.3 0 .1.1.1.3.2a1.6 1.6 0 0 0 1.6-.3c.6-.5 1.4-1 1.2-1.3a20.2 20.2 0 0 0 -7.8-6.4 9 9 0 0 0 .4 2.5z"/><path d="m41.9 107.5c-2.6 4.6-1.4 9 2.9 10.2-2.4-3.3.3-7.4-2.9-10.2z"/><path d="m40.4 84.6a21.1 21.1 0 0 0 -4.7 2.2c1.7 1.3 2.8 2.3 3.8 3.2l2.4-2.4a15.1 15.1 0 0 0 1-1.7c-.8-.5-1.8-1.4-2.5-1.3z"/><path d="m50.4 99.6a2.9 2.9 0 0 0 -1.9 1.1 2.2 2.2 0 0 0 .2 1.9c.9 1.5 1.9 2.9 2.9 4.5l2.1-.7-2.2-5.3c-.3-.6-.8-1.5-1.1-1.5z"/><path d="m42.2 90.5 7 3.1c-.5-3.1-2.5-5.2-5.1-5.3-.7 0-1.4.9-2.1 1.4z"/><path d="m51.7 114.5a9.6 9.6 0 0 0 -1.2-2.5c-.5-.5-4.6 1.3-4.7 2.2a2.9 2.9 0 0 0 .9 2c1.2.8 3.9-.3 5-1.7z"/><path d="m45.4 118.5a12.5 12.5 0 0 0 8.6 2.6c-2.5-3.6-4.9-4.3-8.6-2.6z"/><path d="m139.1 125.6a15.2 15.2 0 0 0 -2.4-9.2c-1.2 4-.5 7.1 2.4 9.2z"/><path d="m36.1 96.1-1.5-.4c-.1.5-.4 1.1-.3 1.5a18 18 0 0 0 1 4c.2.5.8.9 1.3 1.4.4-1.9.8-3.5 1.1-5.3a9.5 9.5 0 0 0 -1.6-1.2z"/><path d="m56.2 113.4-1.8-5.7-.7-.3c-.6.9-1.7 1.8-1.8 2.7s2.7 3.5 4.3 3.3z"/><path d="m37.6 104.3-.6.4c.4 1.7.9 3.4 1.3 5.1h1c.3-1.4.9-2.7.8-4s-1.6-1-2.5-1.5z"/><path d="m40.7 79.6a3.1 3.1 0 0 0 -1.6.2c-1 .4-1.2 3.2-.2 3.7a5.4 5.4 0 0 0 1.8 0c.1-1.1.2-1.8.2-2.5s0-1.2-.2-1.4z"/><path d="m32.5 88.6c.3 1.4.6 2.7.9 4.2l2.6-1.4c0-2.5-1.2-3.3-3.5-2.8z"/><path d="m47.6 88.3c.5-1.4.8-2.8-.8-3.4a2.2 2.2 0 0 0 -2 1c-.7 2.4 1.9 1.4 2.8 2.4z"/><path d="m19.6 26.1a3.8 3.8 0 0 1 -2.9-.6 4.7 4.7 0 0 1 -1.3-3.5v-.2l-.8.5.4 2.5c-1.7 1.2-2.5.4-3.6-.7a5.5 5.5 0 0 0 -1.7-1.3l-.4-.3.2.5.5.7.5.8c1.1 1.7 2.7 1.8 4.2 1.8a6.4 6.4 0 0 1 2.8.5 2.7 2.7 0 0 0 1.3.2h.7l.4-.9z"/><path d="m34.6 87.2c-.1-1.4-.3-2.9-.4-4.6-1.8.9-2.4 2.1-2 3.5s1.2 1.1 1.9 1.6z"/><path d="m45 81.5c-.3-.5-1.2-.7-1.9-1.1l-1.2 3.2a8.2 8.2 0 0 0 2.9-.2c.3-.1.5-1.4.2-1.9z"/><path d="m35.7 84.8c2.4-.4 1.5-2.3 1.7-3.8-2.8.3-3 1-1.7 3.8z"/><path d="m61.9 64.1-4.8-3.8c.5 2 3.1 3.9 4.8 3.8z"/><path d="m87.7 115.7c-.1-.2-.1-.4-.2-.5z"/><path d="m52.5 65.1c-5.9-6.3-12-12.5-17.8-18.9-4.2-4.7-9-8.8-11.6-14.7a11.7 11.7 0 0 1 -.9-2.4 5.7 5.7 0 0 1 -.4-1.4c1.1-.8 1.7-.5 2.3.7 2.4 4.9 6 9 9.9 12.9-.3-.5-.4-1-.7-1.4l-6.2-7.5c-.9-1.3-1.6-2.8-2.6-4.4 2.6-.1 4.9.4 6.6-1.2l-6.9.5-.2-.8 4.1-1.4a2.8 2.8 0 0 0 -2-.1c-1.4.5-2.7 1.3-4 1.7-2.9.6-5.9 1.1-8.8 1.5-.7.1-1.5-.5-2.3-.8l-1.7-.9v.2l2 1.9-3.5 1.6v.3l2.5-.4-.7 1.4.3.2 2.4-2.8c2.8 3.9 5.4 7.6 8.2 11.3s7.7 10.1 12 14.8 9.3 9.5 14 14.3 6.7 7.3 10.2 10.8l6.3 6.4c-.1-.3-.1-.7-.2-1l-15.7-16.5c-5-5.1-10.1-10.1-15-15.4a120.5 120.5 0 0 1 -8.3-10.3c-3.1-4.1-6.1-8.3-9.2-12.5a6.9 6.9 0 0 1 -.7-1.5l.3-.2a2 2 0 0 1 .8.4c4.1 5.7 7.8 11.7 12.4 17 7.2 8.4 15 16.3 22.7 24.3 3.6 3.8 7.5 7.5 11.2 11.3a10.9 10.9 0 0 1 1.3 1.7c-.1-.7-.1-1.5-.2-2.2l-.4.4c-5-5.1-10-10.1-14.9-15.2-6.5-6.8-13-13.6-19.2-20.7-4.1-4.6-7.5-9.8-11.2-14.8a22.6 22.6 0 0 1 -1.1-2.2l.5-.6c.5.4 1.2.6 1.5 1.1 4.6 7.6 10.5 14.2 16.4 20.7 8.4 9.3 17.1 18.1 25.7 27.2a26.9 26.9 0 0 1 2.6 3.3v-.6c-.1-.6-.1-1.2-.2-1.8a8.3 8.3 0 0 1 -1.5-1.1c-8.9-9.2-17.9-18.2-26.4-27.7-5.4-6-10.2-12.7-15.2-19.1-.4-.6-.7-1.3-1.2-2l2.6-.2c2.6 3.9 4.6 7.9 7.5 11.3 5.9 6.8 12.1 13.3 18.3 19.9l15.9 16.7c.1-.4.1-.7.2-1.1h-.2z"/><path d="m62.3 78.5h-.2c.1.6.1 1.2.2 1.8z"/><path d="m62.3 76.5c.1-.6.1-1 .2-1.5h-.2c-.1.4-.1.7-.2 1.1z"/><path d="m62.5 74.2a.4.4 0 0 0 .1-.3v.2z"/><path d="m146.8 147.7c-2.3-2.6-4.7-5-7.1-7.5-.5-.6-.9-1.4-1.5-2.3 2.3-.2 4.1-.2 5-2.1s-.2-3.5-1.7-4.8a39.7 39.7 0 0 1 -4.1-4.1c-1.3-1.7-2.4-.3-3.6-.1a10.1 10.1 0 0 0 .5 2.5 20 20 0 0 0 1.9 2.2l4.6 5.3-.5.5-2.8-2.3c-2.4-2.5-5-4.6-8.6-5.5s-3.8-2.7-5.5-4.7a.4.4 0 0 1 .2-.6l5.3-.8a1.5 1.5 0 0 0 -1.6-.4c-2.5.8-4.2.9-6-1.2-.2-.3-1.2-1-1.5-1.3l-7.9-6.8a.3.3 0 0 1 .1-.5l4.5-2.3a2 2 0 0 0 .8-.8v-.2l-4.2 1.9a.9.9 0 0 1 -1-.1c-4.1-3.8-8.7-6.6-12.2-10.8a.6.6 0 0 1 .1-.9l2.7-1.4a.8.8 0 0 0 .3-.9l-1.3 1a.8.8 0 0 1 -1.1-.1c-2.7-3.5-5.3-6.5-7.7-9.7-1.1-1.5-2.7-3.2-1.1-5a5.9 5.9 0 0 1 -2-.6 19.4 19.4 0 0 1 -2.6-2.3c-2.7-2.5-2.8-2.6-1.1-5.5l-2 1c-1.1-1.1-2.1-2.2-3.2-3.1s-2.4-1.4-3.6-2.1a7.5 7.5 0 0 1 -3.8-5.3l2.1.9c1.2.4 1.9.1 2.3-1.2s-.3-2.1-1.3-2.1a5.4 5.4 0 0 0 -3.2.9 2.1 2.1 0 0 0 -.2 3.1 12.6 12.6 0 0 1 .7 1.6c-4-1.1-5.6-3.9-4.2-7.2l5.5.5c2.7.4 5.6 1.5 7.3-1.6.6.8 1.1 1.9 1.8 2.1 4.8 1.4 9.6 2.6 14.5 3.8a1.7 1.7 0 0 0 1 0l1.1-.8c.2-.4.9-.7.5-.9-2.1-1-6-2.2-8.1-3l-8.2-2.3a23.1 23.1 0 0 0 -3.7-.3c-3.7-.6-7.5-.7-11 .7s-7.8.3-9.6-1.7c-3.9-4.2-7.6-8.6-12.6-11.6a1.5 1.5 0 0 1 -.5-.6c-1.3-1.8-2.5-3.7-3.9-5.5s-4.4-5.4-6.6-8.1c-.9-1.1-.5-1.9.8-2a11.6 11.6 0 0 1 2.8.4c-.2.1.3-.1.3-.3s.4-2 0-2.4-1.5-.6-1.9.7-1.1.5-1.8.8c-.2-2-.2-3.1-.4-5.2a10.4 10.4 0 0 0 2.5 0 3.4 3.4 0 0 0 1.4-.5.6.6 0 0 0 .4-.9 3 3 0 0 0 -.7-1.1 2.7 2.7 0 0 0 -1.9.2c-.6.3-1 1.1-1.9 1.6l-.8-3.6a25.5 25.5 0 0 0 3.2.5 1.8 1.8 0 0 0 1.4-.8c.2-.5.1-1.5-.2-1.6a2.3 2.3 0 0 0 -1.8 0 15.7 15.7 0 0 0 -2.7 1.8c-.3-1.7-.5-2.8-.7-4.4a15.1 15.1 0 0 0 3.1.6c.6 0 1.5-.3 1.6-.7a1.8 1.8 0 0 0 -.4-1.7c-.3-.3-1.2-.1-1.7.2a14.5 14.5 0 0 0 -2.6 1.1c-.5-1.6-.5-2.4-.9-4l2.8.6c.5 0 1.1.1 1.4-.2a2 2 0 0 0 .5-1.4c-.5-.6-1.2-1-1.9-1.7a3.6 3.6 0 0 1 -4.5 1.9c-2.3-.9-2.9-3.1-4.2-4.8a8.6 8.6 0 0 0 -4.5-2.9 2.4 2.4 0 0 0 -1.5.2l.6.2v.6c2.1-1 4.4.5 5.7 3.7-4-1.7-4.5-1.6-7.4 1.5a3.7 3.7 0 0 1 1.7-5.2l-1.1-.3a4.5 4.5 0 0 0 -1.1 1.9c-.5 1.2-.9 1.4-1.9 1.3a2.1 2.1 0 0 0 -1.4.2.6.6 0 0 0 .1.9l2 .8c2.5 3.6 5 6.1 9.9 1 2.7 1.1 5 2.5 5.2 5.9a53.5 53.5 0 0 0 1.1 6.8c.6 2.8 1.3 5.6.5 8.6a2.7 2.7 0 0 0 .4 1.9l4.3 5.7 5.4 6.7c.1.2.1.4.2.6l-1 .3a.4.4 0 0 0 -.2.7l1.3 1.6a.3.3 0 0 0 .2-.4l-.3-.7c-.2-.5 0-.5.2-.7 2.1 1.7 4.4 3.2 6.3 5s6.2 6.5 9.4 9.7a19 19 0 0 0 3.7 2.2.7.7 0 0 0 -.3-.9l-1.4-.8a1.6 1.6 0 0 1 -.7-.7c-.2-.1-.4-.4.2-.3 4.2 1.4 4.1 1.9 4.3 2.4a.5.5 0 0 1 .2.4c0 3 1.3 4.6 4.4 6.1s4.1 2.2 6.1 3.3 5.5 4.1 6.1 7.5a8.5 8.5 0 0 0 4.4 6.4 10.7 10.7 0 0 1 3.7 3.3l7 8.8c-1.8 1.2-1.2 2.3 0 3.3l9.6 8.2 1.3 1.2a.4.4 0 0 1 -.2.7l-7.6 2.4v.4l6.9-1.7.7.2 10.4 9a.3.3 0 0 1 -.2.5l-2.3.2v.4h2.3a1.7 1.7 0 0 1 1.2.5l2.6 3.2c-1.6.9-3.5 1.5-4.9 2.6s-.1 1.3.1 2.3a.8.8 0 0 0 .6.8h.1c-1.4-3.6 1.6-4.6 5.4-3.9-3.1 2.9-3.1 4.6.1 5.8-.3-1.4-2.8-1.9-1.5-3.8s3.4-1.8 5.9-.6c-2.9.4-3.7 1.1-3.4 3.4s-.2 3.2-3.1 3.4l-9.3.6a3.6 3.6 0 0 1 -1.4-.2l-12.3-5.5a3.3 3.3 0 0 1 -.6-1.4c1.4-.8 2.9-2.3 4.2-2.1s4.2 1.5 6.1 2.5 3.8 2.3 2.9 5.2c.4-.8.9-1.7.7-2.2s-2.2-2.8-3.4-4.3l1.9-1.6c2-1.5 2.4-1.4 4 .5l1.1 1.4c-2.1-4.4-2.9-4.4-5.4-2.4s-3.8 2.6-6 .5a5.2 5.2 0 0 0 -2-.6c2.2-1.2 4.3-2.1 6.2-3.2a2.9 2.9 0 0 0 .5-4.9l-2.4-2.3a11.6 11.6 0 0 1 -.6 1.5c-.3.6-.5 1.6-.9 1.6a3.3 3.3 0 0 1 -1.8-.8l-2.6-2.5c-1.9-1.6-2.9-3.5-2.3-6.1a6.5 6.5 0 0 0 0-3.1c-1.2-6.8-5-11.8-10.6-15.7l-2.8-1.6c.4 1.9.2 8.4.1 14.2v.2c-.1 4.6-.2 8.9.1 10.2s2 5.5 5.2 6.2 2.6 2 3.6 3.4l-2.1-.6c.1 2.3 1.8 3 3.2 3.6a28.3 28.3 0 0 0 4.4 1.1c-3.6 4-6.9.4-10.5-1.1l-.3.4c.5 1.2 1.1 2.3 1.5 3.2 1.5 2.7 2.2 3.2 2.3 4.9.7-2.9-2.4-4.7-2.9-7a45.6 45.6 0 0 0 5.9 2 4.2 4.2 0 0 1 2.9 1.9l4.1 7.9c.7 1.3 1.1 2.7 1.8 4a1.8 1.8 0 0 0 3.1.4 18 18 0 0 0 3.3-4.5c1.1-2.5 3.1-2.8 5.4-2.9l8.9-.5a47.7 47.7 0 0 0 2.1 7.1 27.3 27.3 0 0 0 3.5 6.8c2.5 3.4 4.9 7 9 8.7s3.6 1.1 5-2.3a8.3 8.3 0 0 1 .7-1.3c2.2-3.2 1.6-6.3-.9-9.2zm-119.4-139.8v.7l-1.8 1.3-1.7-2.4zm-1.1 3.4a2.7 2.7 0 0 1 -3.8-.6 5.2 5.2 0 0 0 5.6-1.9l.4.5a19.9 19.9 0 0 1 -2.2 2zm59.7 69.8c1.4 1.9 4.8 2.3 4.7 5.9-2.5-1.5-4.2-3.2-4.7-5.9zm24 38.7c1 .8 2.4 1.3 1.4 3.7l-2.6-3.7a1.1 1.1 0 0 1 1.2 0zm-9.3-4 5.6 5.8c-2.8 1.5-3.5-1-4.7-2s-2.5-1.8-.9-3.8zm-1.1 2.8 3.9 4c-1.6 1.8-2.6.2-3.5-.7s-2.6-1.7-.4-3.3zm-1.5 6.7-2.5-2.7a.7.7 0 0 1 0-1l3.2 3.1zm-1.6-3.9c1.3-1 1.3-1 4.7 2.9-2.6.1-3.2-2-4.7-2.9zm4.5 7.3-1.8-2.9.3-.4 2.2 2 .5-.4-1.3-1.7.3-.5 2.8 1.7.4-.3-1.6-1.9c.7-.5 1.4-1.4 2.4-.1a6.8 6.8 0 0 0 1.2 1.2l.4-.4-1.2-1.4-.3-.3c1.8-2.5 2.3 1 4.2.8l-1.9-2.3c2-.7 2.3 1.4 3.7 2.5zm.5 5.5.7-.7 2.2 3.4a37.1 37.1 0 0 0 -2.9-2.7zm7.4 2.9c.4.3 1 .6 1 .8s-.1 2.3-2.3 2.2zm-2.9 4.4 3.6-1 .2.4-4 2.4zm2.8 4.4a1.4 1.4 0 0 1 -1.4-.3c-.9-1-.4-2.5 1.1-3.2s.5 1.5.6 2.2a1.6 1.6 0 0 1 -.3 1.3zm1-1.6c-.2-.6-.6-1.6-.4-1.8a7.8 7.8 0 0 1 2.1-.9l.5.8zm33.2.4c.6 1.2 2.6 2.1 3.3 3.3-1 0-2 .5-3 .5s-2.6-2.6-.3-3.8zm-.8 13.2a14.4 14.4 0 0 1 -2.5-2.3c-.2-.3 1-1.4 1.5-2 2.8 1.1 2.8 1.1 1 4.3zm-1.3-15.8c.3.6 1 1.2.9 1.7s-1 .9-1.5 1.4l-.7-.5.7-2.5zm-11.6-.2 5.5.6c-2.9 2-4.9 1.7-5.5-.6zm.7 2.6 4.1-.2.3.5a6.7 6.7 0 0 1 -2.1 1c-.9.1-2.2.4-2.3-1.3zm.6 2h5.1a17.1 17.1 0 0 1 -1.1 1.4v.2l-.7.6a2.9 2.9 0 0 1 -2.2-.2c-.5-.4-.7-1.2-1.1-2zm3.7 6.1-1.7-2.4.2-.7c.7.2 1.7.2 2.1.7s.3 1.5.4 2.2zm3.2 3.8-2.6-3.1.4-.6a24 24 0 0 1 3.1 2.1c.2.2-.2 1-.3 1.6zm2.5-5.3a6.3 6.3 0 0 1 2-1c.1.5.2 1 .3 1.7l-2.2.9c-.1-.6-.4-1.4-.1-1.6zm-1.3 5.1 4.3 2.6-.4 1c-2.5-.4-4.1-1.8-3.9-3.6zm8.7 0a8.8 8.8 0 0 1 -1.1 2.4 17.3 17.3 0 0 1 -1.7 2.1l-1.6-1.9c-.3-2.1 1.6-2.9 2.7-4s1-.2 1.3.1a1.7 1.7 0 0 1 .4 1.3zm-.1-7.5 1 4.3c-4-2-4.1-1.2-1-4.3z"/></g><path d="m83.5 82.8c-.9-1.6-1.7-3.3-2.8-5.3-1.2 1.3-3.6.7-2.9 3s2.5 3.7 5.7 2.3z" fill="none"/><path d="m70.7 70.5c-.4-.1-1 .3-1.4.6a1.3 1.3 0 0 0 -.1.9c.6 1 3.4 1.1 4.7-.1a26.1 26.1 0 0 0 -3.2-1.4z" fill="none"/><path d="m85.8 90.1c-.3-1.6-.2-3.4-1-4.4s-2.4-.6-3.7-.9l-1.1-.4c-.5-.1-1.2-.2-1.3 0a2.2 2.2 0 0 0 -.4 1.7c.7 2.5 4.5 4.6 7.5 4z" fill="none"/><path d="m67 69.4a7.6 7.6 0 0 0 -2.5 1.9l.6.8 4.1-1.2v-.8c-.7-.3-1.6-.9-2.2-.7z" fill="none"/><path d="m83 118.1c.8 1.5 2.2 1.8 3.8 1.4a34.2 34.2 0 0 1 -1.9-7.1.7.7 0 0 0 -1.1-.4c-.8.7-1.7 1.4-1.8 2.2a7.1 7.1 0 0 0 1 3.9z" fill="none"/><path d="m73.6 75.3c.2 1.6.3 2.7.4 3.8l2.4.3 2.5-3.4-.2-.7z" fill="none"/><path d="m77.1 123.2c-.3-.4-.9-.7-1.2-1.1s-1.9-1.6-3.5-.2a36 36 0 0 0 2 3.9c.3.4 1.2 1 1.5.9a5.2 5.2 0 0 0 2-1.9c.1-.3-.5-1.1-.8-1.6z" fill="none"/><path d="m82.2 119-1.8 4c1.7.8 2.6-.1 2.8-1.4s-.5-1.4-1-2.6z" fill="none"/><path d="m83 118.1c.8 1.5 2.2 1.8 3.8 1.4a34.2 34.2 0 0 1 -1.9-7.1.7.7 0 0 0 -1.1-.4c-.8.7-1.7 1.4-1.8 2.2a7.1 7.1 0 0 0 1 3.9z" fill="none"/><path d="m83.9 128.2c.2 1 2.4 2.7 2.6 2.5a42.7 42.7 0 0 0 3.8-3.6c-1.7-2.2-1.8-5.9-6.3-5.8a39.9 39.9 0 0 0 -.1 6.9z" fill="none"/><path d="m87.4 136.5 2.3-.4c-.5-1.6-.7-2.9-1.2-4.1s-1.2.1-1.8.1c.2 1.5.4 2.9.7 4.4z" fill="none"/><path d="m79.6 112c.1 0 .2-.4.2-.8a2.1 2.1 0 0 0 0-1.1 2.9 2.9 0 0 0 -.3-.9 5.5 5.5 0 0 0 -3.9-3.6 15.1 15.1 0 0 1 -2.2-1.1 5.5 5.5 0 0 0 -2.5-.3 2.5 2.5 0 0 0 -1.7 3c1.1 5.1 1.5 5.5 6.6 6.5h.6c1.7.7 2.9.4 3.2-1.7z" fill="none"/><path d="m82.8 129.7c-4.2 2.7-4.6 4.5-1.9 8.4a8.1 8.1 0 0 0 1.2 1.4c.7.6 2 1.5 2.1 1.3s2.7-1.2 2.4-3.2-.6-6.1-3.8-7.9z" fill="none"/><path d="m93.5 139.8c-2.7-2.6-3.2-2.5-6.1-.2a12.4 12.4 0 0 0 -1.8 1.4c-.3.4-.7 1.4-.5 1.7a14.7 14.7 0 0 0 7.9 6.2c.5-2.6.9-4.9 1.2-7.3a2.9 2.9 0 0 0 -.7-1.8z" fill="none"/><path d="m82.2 126.1a.8.8 0 0 0 -1-.7 3.8 3.8 0 0 0 -1 .3 24.8 24.8 0 0 0 -3.6 2.8c-.9.8-.4 2.8.8 3.4h.6a27.3 27.3 0 0 0 4.4-3.9c.3-.4.1-1.2-.2-1.9z" fill="none"/><path d="m79.6 114.5c-1.8 1.4-4.3 2.3-3.6 5.2.3 1.3 1.4 2.4 2.4 3.9 3.2-5.8 3.5-6.5 1.2-9.1z" fill="none"/><path d="m94.4 142.3a23.9 23.9 0 0 0 .6-5.5 4.8 4.8 0 0 1 -1.1 2.1c-1-.8-2.9-1.5-3-2.5s-1.2-5.2.3-7.7c-2.1-4.8-4.3-11.1-4.6-12s0-11.3 0-13.5.9-11.9-1.2-17.1-4.1-8.8-6.3-11-11-6-12.2-6.3-3.6 3.8-3.6 3.8a5.4 5.4 0 0 0 -.7 1.3.4.4 0 0 1 -.1.3 3.6 3.6 0 0 0 -.2 1h.2c-.1.5-.1.9-.2 1.5l-.2-.3v2.2h.2v1.7c.7 5.7 3.1 12.8 3.8 16.9 1.2 6.4 3.6 12.1 4.1 17.1 1.5.6 3.4.5 5 .8 0 3.3-1 5-3.5 5.8v-.3c1.1 3.2 3 7.2 6.6 14.1 6.2 11.8 15.1 15.1 15.1 15.1zm-5.9-10.3c.5 1.2.7 2.5 1.2 4.1l-2.3.4c-.3-1.5-.5-2.9-.7-4.4.6 0 1.7-.3 1.8-.1zm1.8-4.9a42.7 42.7 0 0 1 -3.8 3.6c-.2.2-2.4-1.5-2.6-2.5a39.9 39.9 0 0 1 .1-6.9c4.5-.1 4.6 3.6 6.3 5.8zm-6.5-15.1a.7.7 0 0 1 1.1.4 34.2 34.2 0 0 0 1.9 7.1c-1.6.4-3 .1-3.8-1.4a7.1 7.1 0 0 1 -1-3.9c.1-.8 1-1.5 1.8-2.2zm-3.4 11 1.8-4c.5 1.2 1.2 2 1 2.6s-1.1 2.2-2.8 1.4zm-15.3-50.9-.6-.8a7.6 7.6 0 0 1 2.5-1.9c.6-.2 1.5.4 2.3.7v.8zm4.1-.1a1.3 1.3 0 0 1 .1-.9c.4-.3 1-.7 1.4-.6a26.1 26.1 0 0 1 3.2 1.4c-1.3 1.2-4.1 1.1-4.7.1zm7.2 7.4-2.4-.3c-.1-1.1-.2-2.2-.4-3.8h5.1l.2.7zm1.4 1.1c-.7-2.3 1.7-1.7 2.9-3 1.1 2 1.9 3.7 2.8 5.3-3.2 1.4-4.8.7-5.7-2.3zm.9 3.9c.1-.2.8-.1 1.3 0l1.1.4c1.3.3 3.1.1 3.7.9s.7 2.8 1 4.4c-3 .6-6.8-1.5-7.5-4a2.2 2.2 0 0 1 .4-1.7zm-2.3 29.3h-.6c-5.1-1-5.5-1.4-6.6-6.5a2.5 2.5 0 0 1 1.7-3 5.5 5.5 0 0 1 2.5.3 15.1 15.1 0 0 0 2.2 1.1 5.5 5.5 0 0 1 3.9 3.6 2.9 2.9 0 0 1 .3.9 2.1 2.1 0 0 1 0 1.1c0 .4-.1.8-.2.8-.3 2.1-1.5 2.4-3.2 1.7zm-.5 13c-.3.1-1.2-.5-1.5-.9a36 36 0 0 1 -2-3.9c1.6-1.4 2.6-1.1 3.5.2s.9.7 1.2 1.1.9 1.3.8 1.6a5.2 5.2 0 0 1 -2 1.9zm2.5-3.1c-1-1.5-2.1-2.6-2.4-3.9-.7-2.9 1.8-3.8 3.6-5.2 2.3 2.6 2 3.3-1.2 9.1zm-.4 8.3h-.6c-1.2-.6-1.7-2.6-.8-3.4a24.8 24.8 0 0 1 3.6-2.8 3.8 3.8 0 0 1 1-.3.8.8 0 0 1 1 .7c.3.7.5 1.5.2 1.9a27.3 27.3 0 0 1 -4.4 3.9zm6.2 8.9c-.1.2-1.4-.7-2.1-1.3a8.1 8.1 0 0 1 -1.2-1.4c-2.7-3.9-2.3-5.7 1.9-8.4 3.2 1.8 3.4 4.9 3.8 7.9s-1.4 2.4-2.4 3.2zm.9 1.9c-.2-.3.2-1.3.5-1.7a12.4 12.4 0 0 1 1.8-1.4c2.9-2.3 3.4-2.4 6.1.2a2.9 2.9 0 0 1 .7 1.8c-.3 2.4-.7 4.7-1.2 7.3a14.7 14.7 0 0 1 -7.9-6.2z" fill="#77a4cd"/><path d="m70.6 115.8a5.9 5.9 0 0 1 -.2-1.4v-.2h-.2a19.2 19.2 0 0 1 -3.5-2.3l-1-.8a1.9 1.9 0 0 1 -.5-2.7 19.6 19.6 0 0 0 1.2-3.4c.1-.4.3-.9.4-1.4v-.2l-1.1-.3v.2a1.3 1.3 0 0 1 -.1.6c0 .4-.1.9-.1 1.3v.2c-.1 1.2-.3 2.5-1.6 2.5s-3.2-.1-3.8-.9a49.7 49.7 0 0 1 -3.5-6l-1.3-2.6 7.2 1 .2-.7-7.6-1.3-1-1.2c-.9-1.1-1.9-2.2-2.8-3.4a2.3 2.3 0 0 1 -.5-1.9 11.4 11.4 0 0 1 1.5-2.9l.6-1c2.4 1 2.8 1.5 3.6 4.2 1.3 4.6 3.3 6 7.7 5.4h.6l-.6-.2-1.7-.4a8.9 8.9 0 0 1 -3.8-1.7c-.9-.9-1.2-2.4-1.6-4l-.6-2 7.1 1.3.2-.7-11.5-3-1.5 3h-.4c-1.4-5.7-3.5-11.6-8.3-16.1l.3-.3 5 5.5.7-.6h-.1a10 10 0 0 1 -1.6-1.9 11.2 11.2 0 0 0 -3.7-3.5c-4.1-1.9-6.6-5.2-8.9-8.4-1.1-1.4-2.2-2.9-3.4-4.2l.2-.2 2.5 2.6.6-.6h-.1l-1.2-1.4a12.6 12.6 0 0 0 -2.7-2.9c-4.2-3.1-7.6-7.2-10.8-13.2a24.2 24.2 0 0 0 -8.2-8.7c-2.4-1.5-4.4-3.1-5.1-5.7h-.3v.5a4.5 4.5 0 0 0 .7 2.1 21.7 21.7 0 0 0 4.3 3.8c3 2.3 6.1 4.6 7.7 8.4a22 22 0 0 0 2.8 4.4l4.2 5.2 3 3.5 4 5c2.5 3.2 5 6.4 7.7 9.5l1.2 1.3c2.8 3.3 5.4 6.3 6.9 10.4a32.5 32.5 0 0 1 1.1 4.2c.9 3.7 1.8 7.5 5.3 10.2v.2a22.6 22.6 0 0 1 1.1 2.2c.9 1.7 1.7 3.3 2.5 5s3 4.1 5.1 3.8l1.2 1.3a24 24 0 0 0 2.4 2.2l.4.3a12 12 0 0 1 3.3 3l.4.6z" fill="#77a4cd"/><path d="m5.7 21.2a1 1 0 0 1 .4-.9v-.2l.6-.2.5.3a.9.9 0 0 0 .8.4.8.8 0 0 0 .8-.5l.5-1a7 7 0 0 1 1.2-1.5l.8-.2c1.8-.6 3-1 5 .3s6.3 3.9 9.6 5.6 3.3 1.2 4.2.8 1.6-1.7 2-4a14.2 14.2 0 0 1 .5-1.6l.3-.7-.9-.3-.3.9-.6 1.9c-.3 1.6-.7 2.4-1.3 2.7s-1.4.2-2.8-.4a55.7 55.7 0 0 1 -5.7-3.3c-3.3-2.2-7.2-4.7-11.6-2.6a2.5 2.5 0 0 0 -1.4 2.1h-.1a15.1 15.1 0 0 1 -.8-3.4l-.3-1.6a3.6 3.6 0 0 0 -1.2-4 4.7 4.7 0 0 0 -4.6-.3 6.1 6.1 0 0 1 1.3-2.2l.7-.8c1-.9 1.9-.7 3.1.4a5.4 5.4 0 0 0 1.2.9l.6.3.2.2v-.9c0-.6.1-1.2.1-1.7s0-.4.2-.5l.5-.2 9.6 1.3c.2-.5.2-.8 0-1s-.8-.3-1.2-.2h-.2q-1.2.2-1.5-.3t0-1.8h.7a6.1 6.1 0 0 1 1.9-.1 8.5 8.5 0 0 1 2.6.7h.8l1 .3h.1l.2-.9h-.1-.7l-1-.4-2.8-.9-1.5.2a3.7 3.7 0 0 1 -1.8 0c-2.1-.5-3.6.3-5.3 1.2h-.2l-1 .6a5.3 5.3 0 0 1 -4.3 1.3 2.9 2.9 0 0 0 -2.7 1.2 5.6 5.6 0 0 0 -1.7 4.8l.3 1.1a9.5 9.5 0 0 0 .6 1.8l1.5 3a12.9 12.9 0 0 1 .9 1.6v.2a5.3 5.3 0 0 1 .6 1.4c.3 2.1.6 4.2.8 6.2a11 11 0 0 1 .2 1.8h.3zm.2-9.6a3.7 3.7 0 0 0 -2.6-.8l-1.2.3-.6.7a1.4 1.4 0 0 0 -.2.6.4.4 0 0 0 -.1.3 4.3 4.3 0 0 1 -.2-1.2 4.1 4.1 0 0 1 .2-1.6c1.6-.1 3.5 0 4.7 1.7zm.4 3.3c-.5 1.3-1.2 2.1-1.9 2.2a1.4 1.4 0 0 1 -1.3-.5zm-.2-1.6a4.1 4.1 0 0 1 -1.8 1.1 2.2 2.2 0 0 1 -.4-1.4c0-.3-.1-.6-.1-.8a3.9 3.9 0 0 1 1.5.4l.6.2zm4.8-8.9v-.5a1.1 1.1 0 0 1 .6-.7l.7-.2a5.3 5.3 0 0 1 1.6-.4c.2 0 .3.2.5.4s.1.1.1.2.2.5 0 .7c-.2.4-.5.8-.7.8a6.5 6.5 0 0 1 -2-.2z" fill="#77a4cd"/><path d="m30.4 15.1h.2l1.1-.3.7-.2h.2l-1.5-3.7h-.1l-1 .5c-.9.4-1.1.5-1 .7a9.6 9.6 0 0 0 1.4 3z" fill="#77a4cd"/><path d="m13.8 6.3-2.5.5h-.9l.8 2.5h.2l.7-.3 2.3-1c.1-.1.1-.2 0-.6s-.5-1.1-.6-1.1z" fill="#77a4cd"/><path d="m26.8 16.4a2.4 2.4 0 0 1 .2.8v.2h.1a1.9 1.9 0 0 0 .9-.4c.9-.3 1-.3 1-.5a20.9 20.9 0 0 0 -1.1-3c-.1-.1-.1-.1-1 .1s-.8.3-.8.5.5 1.4.7 2.3z" fill="#77a4cd"/><path d="m20.3 14.8h.6a1.8 1.8 0 0 0 1.3-.6c.2-.4.1-.8 0-1.5s-.1-.7-.2-1.1v-.2h-.2l-1 .5c-.6.3-1.1.5-1.2.8a2.2 2.2 0 0 0 .7 2.1z" fill="#77a4cd"/><path d="m20 10.1-1.3-.9-2 2.5h.2l.5.3.9.4h.2a17.4 17.4 0 0 0 1.1-1.8z" fill="#77a4cd"/><path d="m41.7 50.7c5.5 6.2 11.2 12.4 16.1 17.8l1.5 1.5a12.6 12.6 0 0 1 2 2 8.5 8.5 0 0 1 1 1.9l.2.7.2-.4v-.2c.1-.6.2-1.2.3-1.6l-.3-.2-16.6-18c-2.2-2.3-4.4-4.7-6.5-7.1l-3-3.2-.2.2 1.6 2.1z" fill="#77a4cd"/><path d="m134.5 148v-.2h-.1z" fill="#77a4cd"/></svg>