<svg height="163.3" viewBox="0 0 149.1 163.3" width="149.1" xmlns="http://www.w3.org/2000/svg"><g fill="none"><path d="m99.8 121.4c.8.9 1.8 2.4 3.4.7l-3.9-4c-2.2 1.6-.2 2.5.5 3.3z"/><path d="m95.4 121a.8.8 0 0 0 0 1.1l2.5 2.6.7-.6c-1.1-1-2.2-2-3.2-3.1z"/><path d="m101.3 119.1c1.2 1 1.9 3.5 4.6 2l-5.5-5.7c-1.5 1.9-.1 2.9.9 3.7z"/><path d="m109.7 119.3a.9.9 0 0 0 -1.2 0l2.6 3.7c1-2.5-.4-3-1.4-3.7z"/><path d="m101.3 133.6 2.8 2.6-2.2-3.3z"/><path d="m96.3 120.9c1.4.9 2 2.9 4.7 2.9-3.5-3.9-3.5-3.9-4.7-2.9z"/><path d="m109.6 137.2c0-.2-.6-.5-1-.8l-1.3 2.9c2.2.2 2.2-1 2.3-2.1z"/><path d="m107.2 121.2 1.9 2.3c-1.8.2-2.3-3.2-4.1-.8l.2.3 1.2 1.4-.4.4a6.8 6.8 0 0 1 -1.2-1.2c-1-1.3-1.7-.5-2.4.1l1.7 1.9c-.1.1-.3.2-.4.4l-2.8-1.8-.3.5 1.3 1.8-.5.3-2.2-2-.3.4 1.8 2.9 10.2-4.4c-1.3-1-1.6-3.1-3.7-2.5z"/><path d="m28.2 39.7c-2.9-3.3-4.9-7.3-7.4-11.2l-2.5.2a13.2 13.2 0 0 0 1.2 2c5 6.3 9.7 13 15.1 18.9 8.3 9.4 17.2 18.4 26 27.5a4.6 4.6 0 0 0 1.6 1.1 16.1 16.1 0 0 1 0-2.2c-5.3-5.5-10.6-11-15.8-16.6s-12.4-13-18.2-19.7z"/><path d="m109.3 139.8-3.6 1-.2 1.7 4-2.3z"/><path d="m11.2 4.8a15 15 0 0 0 2.9.3c.3 0 .6-.5.8-.9a.8.8 0 0 0 0-.8c-.2-.3-.3-.6-.7-.6a7.7 7.7 0 0 0 -2.4.6.8.8 0 0 0 -.6.8z"/><path d="m21.6 9.4c2.8-3.1 3.3-3.2 7.3-1.5-1.3-3.2-3.6-4.7-5.7-3.7a3.7 3.7 0 0 0 -1.6 5.2z"/><path d="m4.7 14.9a4.4 4.4 0 0 0 2-1.2l-.2-.7a5 5 0 0 0 -2.4-.6c.1.8.1 2.2.6 2.5z"/><path d="m3.3 16.8c1.2 1.5 2.7.7 3.7-2z"/><path d="m27.8 8.8c0-.2-.1-.4-.1-.6l-3.5-.4 1.7 2.4z"/><path d="m85.9 80.8c.5 2.7 2.2 4.4 4.6 5.9.1-3.5-3.2-3.9-4.6-5.9z"/><path d="m11.1 35.1a24.5 24.5 0 0 1 8.1 8.5 38.6 38.6 0 0 0 10.7 13.1c1.5 1.1 2.6 2.8 3.9 4.3l-.4.4-2.4-2.6-.4.4c4 4.3 6.4 9.9 12.3 12.6 2.1 1 3.5 3.5 5.2 5.4l-.4.4-5-5.4-.6.5c4.8 4.3 6.9 10 8.4 16.1h.6c.6-1 1.1-2.1 1.6-2.9l11.1 2.6c0 .2-.1.3-.1.5l-7.1-1.3c.8 2.4 1 4.9 2.3 6.3s3.8 1.5 5.5 2.1c-4.2.6-6.2-.7-7.5-5.3-.8-2.7-1.2-3.3-3.8-4.3-.7 1.3-1.6 2.6-2.2 4a2.6 2.6 0 0 0 .6 2c1.2 1.6 2.6 3.2 3.8 4.6l7.4 1.3a.6.6 0 0 1 -.1.4l-7.3-1a84.5 84.5 0 0 0 4.9 8.7c.6.8 2.6 1 3.9 1s1.7-1.6 1.8-2.8l.3-1.9.7.2a38.6 38.6 0 0 1 -1.6 4.8 2.1 2.1 0 0 0 .5 2.9 25.8 25.8 0 0 0 4.5 3.1c-.5-5-2.9-10.7-4.1-17-.7-4-3-11.1-3.8-16.8v.6c-.9-1.1-1.7-2.3-2.6-3.3-8.5-9-17.2-17.8-25.5-26.9-5.9-6.5-11.7-13-16.2-20.6-.3-.5-1-.7-1.5-1.1l-.5.6a22.6 22.6 0 0 0 1.1 2.2c3.7 5 7.1 10.1 11.1 14.8 6.1 7.1 12.6 13.8 19.1 20.6 4.8 5.1 9.8 10 14.8 15l.4-.3c.1.7.1 1.4.2 2.2a10.9 10.9 0 0 0 -1.3-1.7l-11.2-11.2c-7.6-8-15.3-15.8-22.5-24.1-4.6-5.2-8.2-11.2-12.3-16.9l-.7-.4-.3.2a4.4 4.4 0 0 0 .8 1.5c3 4.2 6 8.3 9.1 12.4s5.3 7 8.3 10.2c4.8 5.2 9.9 10.2 14.9 15.3s10.5 10.9 15.7 16.3c.1.4.1.7.2 1.1l-6.3-6.4-10.1-10.8c-4.6-4.8-9.5-9.3-13.9-14.2s-8-9.7-11.8-14.7-5.4-7.3-8.2-11.1a31.1 31.1 0 0 0 -2.3 2.8l-.3-.2.7-1.5-2.5.4c0-.1-.1-.2-.1-.3l3.4-1.5-2.1-1.9a.3.3 0 0 1 .1-.2 14 14 0 0 0 1.7.9c.7.3 1.5.9 2.2.8l8.7-1.5c1.4-.3 2.6-1.2 4-1.7a3.8 3.8 0 0 1 2.1.1l-4.1 1.4c0 .3.1.5.1.8l6.9-.5c-1.8 1.6-4 1.1-6.6 1.2 1 1.6 1.7 3.1 2.6 4.3s4.1 5 6.1 7.5a6.1 6.1 0 0 1 .7 1.4c-3.8-3.9-7.4-7.9-9.8-12.8-.5-1.1-1.1-1.5-2.2-.6l.3 1.4a15.7 15.7 0 0 0 .9 2.3c2.6 5.9 7.4 10 11.5 14.6 5.7 6.4 11.8 12.5 17.7 18.8l9.5 10.1h.2c.1-.3.1-.7.2-1a9.7 9.7 0 0 0 -1.1-2.4c-1-1.3-2.4-2.3-3.5-3.5-5.3-5.9-10.7-11.7-16-17.7-1.8-2.1-3.5-4.3-5.3-6.5l9.4 10.2 16.5 17.5.3.2c-.1.4-.2 1-.3 1.7a5.4 5.4 0 0 1 .7-1.3s2.3-4 3.5-3.8 9.9 4 12.1 6.2 4.2 5.8 6.3 11 1.1 14.7 1.2 16.9-.4 12.4 0 13.5 2.5 7.1 4.6 11.9l.3-.4c3.6 1.5 6.8 5.1 10.5 1.1a23.6 23.6 0 0 1 -4.4-1.1c-1.5-.6-3.1-1.3-3.2-3.6l2 .6c-1-1.4-1.6-2.9-3.6-3.4s-4.1-3.5-5.1-6.2l-.2-.5c.1.1.1.3.2.5s-.2-5.5-.1-10.1h.1a.1.1 0 0 0 -.1-.1c.1-5.8.3-12.2-.1-14.1a18.8 18.8 0 0 1 2.9 1.6c5.5 3.8 9.3 8.8 10.5 15.6a8.1 8.1 0 0 1 .1 3.1c-.6 2.6.4 4.5 2.3 6.1s1.6 1.7 2.5 2.4a2.7 2.7 0 0 0 1.8.8c.3 0 .6-1 .9-1.6a11.6 11.6 0 0 0 .6-1.5l2.4 2.3a2.9 2.9 0 0 1 -.5 4.9l-6.2 3.1c.8.3 1.6.3 2 .7 2.2 2.1 3.9 1.3 6-.5s3.2-2 5.3 2.3l-1.1-1.3c-1.5-2-2-2-4-.5l-1.9 1.6c1.2 1.5 2.4 2.8 3.3 4.2s-.2 1.4-.7 2.2c.9-2.9-.9-4.1-2.8-5.1s-3.9-2.3-6-2.5-2.8 1.3-4.2 2.1.3 1.1.6 1.3l12.2 5.5a3.2 3.2 0 0 0 1.4.2c3.1-.2 6.1-.5 9.2-.6s3.4-.5 3-3.3.5-3 3.4-3.3c-2.5-1.2-4.6-1.1-5.9.6s1.1 2.4 1.5 3.7c-3.2-1.2-3.2-2.8-.1-5.8-3.8-.7-6.7.3-5.4 3.9h-.1c-.3-.1-.5-.5-.6-.8s-.5-2-.1-2.3a28.7 28.7 0 0 1 4.9-2.6l-2.6-3.2a2.4 2.4 0 0 0 -1.1-.6h-2.3v-.4l2.3-.2a.3.3 0 0 0 .2-.5l-10.3-8.9a1 1 0 0 0 -.7-.2l-6.9 1.7c-.1-.3 0-.2-.1-.4l7.6-2.3a.4.4 0 0 0 .2-.7l-1.3-1.2-9.6-8.1c-1.1-1-1.7-2.1 0-3.3l-6.9-8.7a10.5 10.5 0 0 0 -3.6-3.3 8.5 8.5 0 0 1 -4.4-6.3c-.6-3.4-3-5.8-6-7.5s-4-2.2-6.1-3.2-4.4-3.2-4.3-6.2c0-.2-.2-.3-.2-.4s-.1-.9-4.3-2.4c-.6-.1-.3.2-.2.4a2.7 2.7 0 0 0 .8.7l1.4.8a.7.7 0 0 1 .2.9 17.6 17.6 0 0 1 -3.7-2.3c-3.2-3.1-6.1-6.5-9.3-9.6s-4.1-3.3-6.2-5c-.2.2-.5.2-.3.7l.3.6c.1.2-.1.4-.2.5l-1.3-1.6a.4.4 0 0 1 .2-.7l1-.3c-.1-.2-.1-.4-.2-.5l-5.4-6.7c-1.5-1.9-3-3.7-4.4-5.6a2.7 2.7 0 0 1 -.4-1.9c.8-2.9 0-5.7-.5-8.5a49.2 49.2 0 0 1 -1-6.7c-.2-3.4-2.5-4.8-5.2-5.9-4.9 5-7.4 2.6-9.8-1l-2-.8a.5.5 0 0 1 -.1-.8c.4-.3.7-.3 1.4-.2s1.4-.1 1.8-1.3a6.2 6.2 0 0 1 1.2-1.9 23 23 0 0 0 -3.3-1l-2.8.3c-.5 1.7-.2 2.6 1.6 2.4s1.8-.7 1.3.8a55.8 55.8 0 0 0 -9.6-1.8.8.8 0 0 0 -.9.8v2.3a11.3 11.3 0 0 1 -1.8-1.2c-1-1-2.1-1.5-3.2-.5l-.8.9a6.2 6.2 0 0 0 -1.4 2.5c2.8-1.5 6.8 0 5.9 4.1-.9-3.7-3.4-4.3-5.9-4.1a5 5 0 0 0 -.2 1.7c.3 2.2.3 1.6.9.4l.5-.6a2 2 0 0 1 1.1-.3c2.5 0 3.6 1.5 3.9 4.5a14 14 0 0 0 .8 3.4.3.3 0 0 0 .5-.1 2.2 2.2 0 0 1 1.3-2c4.2-1.9 7.8.3 11.4 2.6a40.3 40.3 0 0 0 5.7 3.3c2.7 1.2 3.7.6 4.3-2.4.2-.9.6-1.8.9-2.7l.6.2a10.5 10.5 0 0 0 -.8 2.3c-.7 4.2-2.1 5-5.9 3a90.9 90.9 0 0 1 -9.5-5.6c-2.3-1.4-3.7-.7-5.8-.1a4.9 4.9 0 0 0 -1.3 1.5c-.2.3-.3.7-.5 1a.8.8 0 0 1 -1.3.1.9.9 0 0 0 -1.3-.1l-.2.2a1.2 1.2 0 0 0 -.6 1.1c-.1 2.5-.2 4.7-.2 6.9v.3c0 .2.1.4.1.7.7 2.7 2.8 4.2 5.2 5.8zm50.8 28.8c-1.7.2-4.3-1.7-4.8-3.8zm-50.2-54.3-.7-2.2c1.1-.2 2.1-.5 3.2-.6s.6 1.3.5 1.4zm7 2.9c-.1.1-.9-.5-1.4-.7l1.7-2.2 1.1.7a8.3 8.3 0 0 1 -1.4 2.2zm2 2.4a2.6 2.6 0 0 1 -.7-1.8c.2-.5 1.1-.6 2.2-1.2.1 1.2.4 2 .1 2.4a1.5 1.5 0 0 1 -1.6.6zm6.8 2.5c-.3-1.2-.6-2.2-.8-3.2a3.7 3.7 0 0 1 1.4-.4 24.9 24.9 0 0 1 1.1 2.9zm3.2-2.1a9.5 9.5 0 0 1 -1.3-2.9l1.9-1 1.3 3.4c-.7.2-1.7.7-1.9.5zm-15.2 9.8-.3-2.5.5-.4c.2 2.8 1.3 4.5 4.3 4.2l-.3.6a9.9 9.9 0 0 1 -1.8-.2c-2.2-1.1-5.2.5-6.9-2.2l-.9-1.5c2 1.1 2.9 3.9 5.4 2z"/><path d="m22.8 10.9a2.6 2.6 0 0 0 3.7.6 20 20 0 0 0 2.2-1.9l-.4-.5c-1.5 1.7-3.2 2.5-5.5 1.8z"/><path d="m134.4 149.4c-.4-.5-1.4-.5-2.1-.6s-.1.4-.2.6l1.7 2.4.9-.2c0-.7.1-1.7-.3-2.2z"/><path d="m145.1 154c-1.1 1.2-3 1.9-2.6 4l1.6 1.9 1.6-2.1a9 9 0 0 0 1.2-2.4 1.5 1.5 0 0 0 -.4-1.3c-.4-.2-1.2-.3-1.4-.1z"/><path d="m137.9 154c-1-.8-2.1-1.4-3.1-2.1l-.4.6c.8 1 1.7 2 2.5 3.1h.6c.2-.6.6-1.4.4-1.6z"/><path d="m133.3 147.7.6-.5v-.2h.3a17.1 17.1 0 0 0 1.1-1.4h-5c.4.8.5 1.6 1 1.8a2 2 0 0 0 2 .3z"/><path d="m138.2 155.4c-.2 1.7 1.4 3.1 3.9 3.6l.3-1z"/><path d="m147.7 152.2-1-4.2c-3 3-3 2.2 1 4.2z"/><path d="m141.4 149.4a9.3 9.3 0 0 0 -2 .9c-.2.2.1 1 .2 1.6l2.2-.8z"/><path d="m108.2 141.7c-1.5.6-2 2.2-1 3.2a1.3 1.3 0 0 0 1.3.3c.3-.1.4-.9.3-1.3s-.4-1.4-.6-2.2z"/><path d="m139.8 144.5c.5-.4 1.4-.8 1.5-1.3s-.6-1.1-.9-1.7h-.6l-.7 2.5z"/><path d="m139.1 154.8a11.9 11.9 0 0 0 2.6 2.3c1.7-3.1 1.7-3.1-1-4.3-.6.6-1.7 1.7-1.6 2z"/><path d="m109.1 141.8c-.2.2.2 1.1.4 1.7l2.2-1.8-.4-.8a6.3 6.3 0 0 0 -2.2.9z"/><path d="m142.8 147.7c1 0 2-.5 2.9-.5-.7-1.2-2.6-2.1-3.3-3.3-2.3 1.3.1 2.7.4 3.8z"/><path d="m133.9 144.1-.3-.5-4.1.2c.1 1.7 1.3 1.4 2.2 1.3a8.8 8.8 0 0 0 2.2-1z"/><path d="m134.3 141.8-5.5-.6c.6 2.3 2.6 2.5 5.5.6z"/></g><path d="m70.4 115.3c.2 1 .4 2.1.7 3.2a5.4 5.4 0 0 0 -.7-3.2z"/><path d="m115.4 85.8a4.7 4.7 0 0 0 -3-6 18.6 18.6 0 0 0 -12.1.6 2 2 0 0 0 -1.1 3.1c3.1 3.8 6.4 7.4 9.9 11.6 2.8-3.2 5.3-5.8 6.3-9.3z"/><path d="m123.4 108.3c3.1 2.8 5.9 5.9 8.9 8.8.4.4 1.1 1 1.4.9a2.8 2.8 0 0 0 1.2-1.4 11.2 11.2 0 0 0 -1.3-9.1c-2.4-4-5-7.8-7.5-11.7l-1.4-1.6c-1 3-1.8 5.7-2.7 8.3s-.5 4.1 1.4 5.8z"/><path d="m71 118.7a2.4 2.4 0 0 0 .5 1.3c-.2-.5-.3-1-.5-1.4z"/><path d="m70.2 113.7a23.2 23.2 0 0 1 -4.6-3.1c-1-.7-1.2-1.6-.5-2.9a38.6 38.6 0 0 0 1.6-4.8l-.7-.2-.3 1.9c-.1 1.2-.2 2.8-1.8 2.8s-3.3-.2-3.9-1c-1.8-2.6-3.1-5.5-4.9-8.7l7.3 1a.6.6 0 0 1 .1-.4l-7.5-1.3c-1.2-1.4-2.5-2.9-3.8-4.6a2.6 2.6 0 0 1 -.6-2 22.4 22.4 0 0 1 2.2-4c2.6 1.1 3 1.6 3.8 4.3 1.3 4.5 3.3 5.9 7.5 5.3-1.7-.6-4.2-.8-5.5-2.1s-1.5-3.9-2.3-6.3l7.1 1.3c0-.2.1-.3.1-.5l-11.1-2.6c-.5.8-1 1.9-1.6 2.9h-.6c-1.5-6-3.6-11.7-8.4-16.1l.6-.5 5 5.4.4-.4c-1.7-1.8-3.1-4.4-5.2-5.4-5.9-2.7-8.3-8.3-12.3-12.6l.4-.4 2.4 2.6.4-.4c-1.3-1.4-2.4-3.2-3.9-4.3a38.6 38.6 0 0 1 -10.7-13.1 22.8 22.8 0 0 0 -8.1-8.5c-2.3-1.5-4.5-3.1-5.2-5.8a5.7 5.7 0 0 0 .6 2.7 19.5 19.5 0 0 0 4.3 3.8c3.1 2.3 6.1 4.6 7.7 8.3a17.7 17.7 0 0 0 2.8 4.3l7.1 8.7c3.9 4.8 7.6 9.7 11.6 14.3s6.4 7 8.1 11.7 1.6 10.6 6.3 14.2c.1.1.1.3.2.4 1.2 2.4 2.5 4.7 3.6 7.2s2.8 4 5 3.7a38.2 38.2 0 0 0 3.6 3.5 12.1 12.1 0 0 1 3.7 3.4c-.1-.5-.1-.9-.2-1.4z" stroke="#000" stroke-miterlimit="10" stroke-width=".3"/><path d="m5.7 28.6c0 .2.1.4.1.7a1.5 1.5 0 0 0 -.1-.7z"/><path d="m116.7 101.1c2.2 1.9 2.5 1.8 4-1.5a19.4 19.4 0 0 0 .9-10.3 4.5 4.5 0 0 0 -2.5-3c-.9-.2-2.5.9-3.3 1.8a65.7 65.7 0 0 0 -4 6.2 1.8 1.8 0 0 0 .3 2.7c1.7 1.3 3.1 2.8 4.6 4.1z"/><path d="m119.2 112.5c3.8 3.8 7.6 7.7 11.5 11.4.6.6 2.2.1 3.4.1a26.6 26.6 0 0 0 -.3-2.8c-.1-.4-.6-.8-.9-1.1-3.7-3.7-7.4-7.3-11-11l-1.6-1.4c-.5.3-1.4.5-1.8 1s-.4 2.7.7 3.8z"/><path d="m6.4 20.4.2-.2a.9.9 0 0 1 1.3.1.8.8 0 0 0 1.3-.1c.2-.3.3-.7.5-1a4.9 4.9 0 0 1 1.3-1.5c2.1-.6 3.6-1.3 5.8.1s6.3 3.9 9.5 5.6 5.2 1.1 5.9-3a10.5 10.5 0 0 1 .8-2.3l-.6-.2c-.3.9-.7 1.8-.9 2.7-.6 2.9-1.5 3.6-4.3 2.4a40.3 40.3 0 0 1 -5.7-3.3c-3.6-2.3-7.2-4.6-11.4-2.6a2.2 2.2 0 0 0 -1.1 1.9c0 .3-.4.3-.5.1a14 14 0 0 1 -.8-3.4c-.3-3-1.4-4.5-3.9-4.5a2 2 0 0 0 -1.1.3 1 1 0 0 0 -.5.6c-.6 1.2-.6 1.9-.9-.4a8.8 8.8 0 0 1 .2-1.7 7.3 7.3 0 0 1 1.4-2.6 6 6 0 0 1 .8-.8c1.1-1 2.2-.5 3.2.5a11.3 11.3 0 0 0 1.8 1.2v-2.3a.8.8 0 0 1 .9-.8l9.4 1.2c.5-1.5-.9-.9-1.3-.8s-2.1-.7-1.6-2.4a24 24 0 0 1 2.8-.3 14.7 14.7 0 0 1 3.3 1l.5-.4a34.6 34.6 0 0 0 -3.8-1.3c-1.1-.1-2.3.5-3.3.2s-3.6.3-5.4 1.2-2.9 2.4-5.3 1.8-4.9 3.7-4.2 5.8a14 14 0 0 0 .9 2.9c.7 1.6 1.6 3 2.4 4.5a5.6 5.6 0 0 1 .7 1.6c.4 2.6.7 5.3 1 7.9.1-2.2.1-4.4.2-6.9a1.8 1.8 0 0 1 .5-.8zm5.4-17a7.7 7.7 0 0 1 2.4-.6c.4 0 .5.4.7.6a.6.6 0 0 1 0 .8c-.3.4-.5.8-.8.9a15 15 0 0 1 -2.9-.3v-.6a.8.8 0 0 1 .6-.8zm-5.4 9.6.2.7a3.6 3.6 0 0 1 -2 1.2c-.5-.3-.4-1.7-.6-2.6a6.2 6.2 0 0 1 2.4.7zm-3.1 3.8 3.7-2c-1 2.7-2.4 3.5-3.7 2z" stroke="#000" stroke-miterlimit="10" stroke-width=".3"/><path d="m90.6 71 13.7 1.3c-2-3.3-15.7-8.4-18.5-6.7.9 1.3 1.7 2.6 2.7 3.8s1.4 1.5 2.1 1.6z"/><path d="m99.6 79.2c2.4-.5 4.8-1.1 7.1-1.8a12 12 0 0 0 2.3-1.1l-2.1-1.4-.8-.3c-4.4-1.1-8.8-2.1-14.1-1.8 2 2.3 3.6 4.2 5.3 5.9a2.7 2.7 0 0 0 2.3.5z"/><path d="m122 86.6c1.9 3.1 4.1 6 6.2 8.9a18.9 18.9 0 0 0 3.2 3.7c.2.2.5.1.8 0s1.8-.8 1.6-1.4-1.3-1.5-1.5-1.8c-2.5-3.9-4.9-7-7.6-10.8a5.4 5.4 0 0 0 -1.6-1.4 2.9 2.9 0 0 0 -2.4.4h-.2c.1 1.4.9 1.5 1.5 2.4z"/><path d="m140.6 127.2a15.9 15.9 0 0 0 1.2 2.7 1.2 1.2 0 0 0 1-1.2 28 28 0 0 0 0-2.9c-.7-4.3-1.6-8.6-2.3-12.9-.2-1-.3-2-1.7-1.7s-1.7 1.2-1.4 2.5c1.1 4.4 2.1 9 3.2 13.5z"/><path d="m107.9 100.5 6.5 6.4c2 2 2.3 2 3.9-.9-.1-.2-.2-1-.6-1.3-2.7-2.5-5.5-4.9-8.3-7.2-.3-.3-1.4-.1-1.8.3s-.5 1.9.3 2.7z"/><path d="m82.2 64.3a1.4 1.4 0 0 0 -1.4-.2c-2.2.7-2.9 4.4-1.1 5.9s2.7 1.2 3.6 2.2 2.9 1.2 4.7.7a3.5 3.5 0 0 0 -.3-1.2c-1.8-2.5-3.6-5-5.5-7.4z"/><path d="m96 87.3c2.5 3.1 5.2 6.1 7.9 9.1.3.3 1.2.1 1.9.2s.4-1.7 0-2.3a20.9 20.9 0 0 0 -2.3-2.9l-6.3-6.9c-1.3.8-2.1 1.7-1.2 2.8z"/><path d="m93.1 83.3c.5.6 1.2 1.6 2.1.5a3.4 3.4 0 0 0 -.6-5.2l-5.1-4.1c-1.3-1.1-2.5-.8-3.4.7s1.1.9 1.5 1.4c1.9 2.2 3.6 4.5 5.5 6.7z"/><path d="m42.8 105.4c.2-.1 1.3-.2 1.5-.6.9-2-.2-5.6-2.1-7a2.4 2.4 0 0 0 -3.7 1.4c-.5 2.8.3 4.1 4.3 6.2z"/><path d="m132.6 102c1.2 2.5 2.4 4.9 3.7 7.3.1.1.5 1.3.6 1.4s1.7-.9 1.8-1.9v-.4c-1.3-3.2-2.8-6.3-4.3-9.6-2.4 1.2-2.6 1.5-1.8 3.2z"/><path d="m102.3 68.1c3.1 3 7.5 6.3 10.8 9.4-.2-1.5.9-1.5-.3-2.7l-9.7-9c-.2-.2-.3.2-.5.5a2.1 2.1 0 0 0 -.4 1.1c-.1.3-.1.6.1.7z"/><path d="m54.3 114.2c-1.7-.2-2.5.6-2.1 2.2s4.4 4.8 6.8 4.9c-.5-2.4-1-4.7-1.5-6.8z"/><path d="m47.1 101.7c-.5.2-1.4.5-1.5.8-.3 2.8-.4 5.7-.6 8.8 2.4-.2 4.5-1.1 4.4-2.7s-1.4-4.6-2.3-6.9z"/><path d="m46.1 93.4c-1.2 0-2.3 1.8-3.5 2.9 3.4 3.6 4 3.7 7.7 1.1-.6-2.6-1.6-4-4.2-4z"/><path d="m42.3 91c-3.2-.9-4.5-.6-5.6 1.6s.8 3 1.9 3.4 4.6-.7 5-2.3-.9-1.8-1.3-2.7z"/><path d="m114.1 78.3c1.3 1.8 2.7 3.6 4.2 5.3l.3.2a1.7 1.7 0 0 0 1.7-.3c.6-.5 1.3-.9 1.1-1.2a18.9 18.9 0 0 0 -7.7-6.3 9.7 9.7 0 0 0 .4 2.3z"/><path d="m42 107.1c-2.5 4.5-1.4 8.9 2.9 10.1-2.3-3.3.4-7.4-2.9-10.1z"/><path d="m40.6 84.3a22.3 22.3 0 0 0 -4.6 2.1l3.8 3.2 2.3-2.4c.4-.5.7-1.1 1.1-1.7s-1.9-1.3-2.6-1.2z"/><path d="m50.5 99.2a1.9 1.9 0 0 0 -1.6 3c.9 1.5 1.9 2.9 2.9 4.4l2.1-.7c-.8-1.9-1.4-3.6-2.2-5.2s-.9-1.5-1.2-1.5z"/><path d="m42.3 90.2 7 3.1c-.5-3.1-2.4-5.2-5.1-5.3-.7 0-1.4.9-2.1 1.4a2.4 2.4 0 0 1 .2.8z"/><path d="m51.8 114a11.5 11.5 0 0 0 -1.2-2.5c-.5-.5-4.6 1.3-4.6 2.1a2.4 2.4 0 0 0 .9 2c1.1.9 3.8-.2 4.9-1.6z"/><path d="m45.6 118a12 12 0 0 0 8.5 2.5c-2.5-3.5-4.9-4.2-8.5-2.5z"/><path d="m138.6 125.1a15.2 15.2 0 0 0 -2.4-9.2c-1.3 4-.5 7 2.4 9.2z"/><path d="m36.3 95.8-1.5-.4a4 4 0 0 0 -.3 1.5 17.2 17.2 0 0 0 1 3.9c.2.5.8.9 1.3 1.4.4-1.9.7-3.5 1.1-5.3s-1-.8-1.6-1.1z"/><path d="m56.3 112.9c-.6-2-1.2-3.8-1.8-5.6l-.7-.3c-.6.9-1.7 1.7-1.8 2.6s2.7 3.5 4.3 3.3z"/><path d="m37.8 103.9-.6.4 1.2 5.1h1c.3-1.3 1-2.7.8-3.9s-1.5-1.1-2.4-1.6z"/><path d="m29.4 12.4a10.8 10.8 0 0 0 1.3 2.9c.1.2 1.2-.3 1.9-.5l-1.3-3.4z" stroke="#000" stroke-miterlimit="10" stroke-width=".3"/><path d="m40.8 79.4a2 2 0 0 0 -1.5.1c-1.1.5-1.3 3.2-.2 3.7s1.3 0 1.8 0 .2-1.7.2-2.4 0-1.3-.3-1.4z"/><path d="m32.8 88.3c.3 1.4.6 2.6.9 4.1l2.6-1.4c-.1-2.4-1.2-3.2-3.5-2.7z"/><path d="m47.7 88c.5-1.4.8-2.8-.8-3.3a2.2 2.2 0 0 0 -2 1c-.6 2.3 1.9 1.3 2.8 2.3z"/><path d="m17.9 26.8a3.6 3.6 0 0 0 1.8.2l.3-.6c-3.1.3-4.2-1.5-4.3-4.2l-.5.4.3 2.5c-2.5 1.9-3.4-.8-5.4-2l.9 1.5c1.7 2.7 4.7 1.1 6.9 2.2z" stroke="#000" stroke-miterlimit="10" stroke-width=".28"/><path d="m34.8 86.9c-.1-1.4-.3-2.9-.4-4.6-1.8.8-2.4 2.1-2 3.5s1.2 1.1 1.9 1.6z"/><path d="m45.2 81.3c-.4-.6-1.3-.8-1.9-1.1s-.6 1.7-1.2 3.2c1.3 0 2.2.2 2.9-.2a2.1 2.1 0 0 0 .2-1.9z"/><path d="m14.2 6.8a16.5 16.5 0 0 0 -3.2.6l.7 2.2 3-1.4a3.4 3.4 0 0 0 -.5-1.4z" stroke="#000" stroke-miterlimit="10" stroke-width=".3"/><path d="m35.9 84.5c2.4-.4 1.5-2.2 1.7-3.7-2.7.3-3 1-1.7 3.7z"/><path d="m28.1 13.8a7.4 7.4 0 0 0 -1.4.4 29.8 29.8 0 0 0 .8 3.2l1.7-.7a14.5 14.5 0 0 0 -1.1-2.9z" stroke="#000" stroke-miterlimit="10" stroke-width=".3"/><path d="m20 13.1a1.9 1.9 0 0 0 .7 1.8 1.7 1.7 0 0 0 1.6-.6c.3-.5 0-1.2-.1-2.4-1.1.6-2 .8-2.2 1.2z" stroke="#000" stroke-miterlimit="10" stroke-width=".3"/><path d="m17.3 11.8c.5.3 1.3.8 1.4.7s1-1.5 1.5-2.2l-1.1-.7z" stroke="#000" stroke-miterlimit="10" stroke-width=".3"/><path d="m7.4 14.1c.9-4.1-3.1-5.6-5.9-4.1 2.5-.2 5 .4 5.9 4.1z" stroke="#000" stroke-miterlimit="10" stroke-width=".3"/><path d="m61.9 63.9-4.8-3.8c.6 2.1 3.1 4 4.8 3.8z"/><path d="m87.5 115.2-.2-.5c.1.2.2.3.2.5z"/><path d="m52.6 65c-5.9-6.3-11.9-12.4-17.7-18.8-4.1-4.6-9-8.7-11.5-14.6l-.9-2.3a5.8 5.8 0 0 1 -.3-1.4c1.1-.9 1.7-.5 2.2.6 2.4 4.9 6 9 9.8 12.8a6.1 6.1 0 0 0 -.7-1.4c-2-2.5-4.1-4.9-6.1-7.5a40.6 40.6 0 0 1 -2.6-4.3c2.6-.1 4.8.4 6.6-1.2l-6.9.5c0-.3-.1-.5-.1-.8l4.1-1.4a3 3 0 0 0 -2.1-.1c-1.4.5-2.6 1.4-4 1.7a66 66 0 0 1 -8.7 1.5c-.7.1-1.5-.5-2.2-.8l-1.7-.9v.2a20.9 20.9 0 0 0 2.1 1.9l-3.5 1.5c0 .1.1.2.1.3l2.5-.4-.7 1.5.3.2 2.3-2.8c2.8 3.8 5.4 7.5 8.2 11.1s7.6 10 11.8 14.7 9.3 9.4 13.9 14.2 6.7 7.2 10.1 10.8l6.3 6.4a4.3 4.3 0 0 1 -.2-1.1c-5.2-5.4-10.4-10.9-15.7-16.3s-10-10.1-14.9-15.3c-3-3.2-5.6-6.7-8.3-10.2s-6.1-8.2-9.1-12.3c-.3-.4-.5-1-.8-1.5l.3-.2c.3.1.6.2.7.4 4.1 5.6 7.8 11.6 12.3 16.9 7.2 8.3 14.9 16.2 22.5 24.1 3.6 3.8 7.5 7.4 11.2 11.2a10.9 10.9 0 0 1 1.3 1.7 15 15 0 0 1 -.2-2.2l-.4.3c-4.9-5-9.9-9.9-14.8-15-6.4-6.8-13-13.5-19.1-20.6-4-4.6-7.4-9.8-11.1-14.8a15.1 15.1 0 0 1 -1.1-2.2l.5-.6c.5.4 1.2.6 1.5 1.1 4.5 7.6 10.4 14.1 16.2 20.6 8.3 9.1 17 18 25.5 26.9a26.9 26.9 0 0 1 2.6 3.3v-.6c-.1-.6-.1-1.2-.2-1.8a9.1 9.1 0 0 1 -1.6-1.1c-8.5-8.9-17.4-17.9-25.9-27.3-5.4-6-10.1-12.6-15.1-19-.4-.6-.7-1.3-1.2-2l2.5-.2c2.5 3.9 4.6 7.9 7.4 11.2 5.8 6.8 12.1 13.2 18.2 19.7l16 16.7c0-.4.1-.8.1-1.1h-.2z"/><path d="m62.3 78.3h-.1a12.4 12.4 0 0 0 .2 1.8 10.3 10.3 0 0 1 -.1-1.8z"/><path d="m62.4 76.2c0-.5.1-1 .1-1.4h-.2a3.7 3.7 0 0 0 -.1 1.1.2.2 0 0 0 .2.3z"/><path d="m62.6 71.8-16.5-17.5-9.4-10.2c1.8 2.2 3.4 4.4 5.3 6.5l16 17.7c1.1 1.2 2.5 2.2 3.5 3.5a8.2 8.2 0 0 1 1.1 2.3v-.2c.1-.7.2-1.2.3-1.7z" stroke="#000" stroke-miterlimit="10" stroke-width=".3"/><path d="m62.6 74v-.3c0 .1-.1.2 0 .3z"/><path d="m146.2 147c-2.3-2.6-4.7-5-7-7.5a18.5 18.5 0 0 1 -1.5-2.3c2.3-.1 4.1-.2 5-2.1s-.2-3.5-1.7-4.8a38.7 38.7 0 0 1 -4.1-4c-1.3-1.7-2.4-.3-3.6-.1a10.2 10.2 0 0 0 .6 2.5 9.7 9.7 0 0 0 1.9 2.2l4.5 5.2-.5.5c-.9-.8-1.9-1.5-2.7-2.3-2.4-2.5-5-4.6-8.5-5.4s-3.8-2.8-5.5-4.7c-.2-.2-.1-.5.2-.6l5.2-.8c-.6-.5-1.1-.6-1.5-.4-2.6.8-4.2.9-6-1.2l-1.5-1.3-7.8-6.7c-.2-.2-.1-.4.1-.6l4.4-2.3a2 2 0 0 0 .8-.8v-.2l-4.2 1.9a.8.8 0 0 1 -1-.2c-4-3.8-8.6-6.6-12.1-10.7a.5.5 0 0 1 .2-.8l2.6-1.4a.7.7 0 0 0 .3-.9l-1.2 1a.8.8 0 0 1 -1.1-.1c-2.8-3.4-5.3-6.4-7.7-9.6-1.2-1.5-2.7-3.2-1.1-5a5.9 5.9 0 0 1 -2-.6l-2.6-2.3c-2.7-2.5-2.7-2.6-1.1-5.4l-1.9 1a31.9 31.9 0 0 0 -3.3-3.1c-1.1-.8-2.4-1.4-3.5-2.1a7.2 7.2 0 0 1 -3.7-5.3 12 12 0 0 0 2.1.9 1.6 1.6 0 0 0 2.3-1.2 1.5 1.5 0 0 0 -1.3-2.1 5 5 0 0 0 -3.2.9 2.1 2.1 0 0 0 -.2 3.1 10.7 10.7 0 0 1 .7 1.5c-4-1.1-5.5-3.8-4.2-7.1l5.5.5c2.7.4 5.6 1.5 7.2-1.6.7.8 1.1 1.8 1.8 2 4.8 1.4 9.6 2.6 14.4 3.8a1.8 1.8 0 0 0 1-.1 2.1 2.1 0 0 0 1.1-.8c.3-.4.9-.7.5-.9a76.4 76.4 0 0 0 -8-2.9 74.9 74.9 0 0 0 -8.1-2.3 23.1 23.1 0 0 0 -3.7-.3c-3.7-.5-7.4-.7-10.9.7s-7.8.3-9.5-1.7c-3.8-4.2-7.6-8.5-12.5-11.5a1 1 0 0 1 -.5-.6l-3.8-5.5c-2.1-2.7-4.4-5.4-6.6-8-.9-1.1-.5-1.9.8-2a8.3 8.3 0 0 1 2.8.5c-.1.1.4-.1.4-.3s.4-1.9-.1-2.4-1.5-.5-1.9.7-1.1.6-1.8.9c-.1-2-.2-3.2-.4-5.2a10.4 10.4 0 0 0 2.5 0 2.7 2.7 0 0 0 1.4-.5.9.9 0 0 0 .4-.9 3 3 0 0 0 -.7-1.1 2.7 2.7 0 0 0 -1.9.2c-.7.3-1 1.1-1.9 1.6-.3-1.2-.5-2.1-.8-3.5a14.5 14.5 0 0 0 3.2.4 1.8 1.8 0 0 0 1.4-.8c.2-.4.1-1.5-.2-1.6a2.5 2.5 0 0 0 -1.9.1 20.8 20.8 0 0 0 -2.6 1.8c-.3-1.8-.5-2.8-.7-4.3a24.3 24.3 0 0 0 3.1.5 2 2 0 0 0 1.6-.7 1.8 1.8 0 0 0 -.4-1.7c-.3-.3-1.2 0-1.7.2a18.3 18.3 0 0 0 -2.6 1.1c-.4-1.6-.4-2.4-.8-3.9l2.8.5a1.6 1.6 0 0 0 1.4-.2 2 2 0 0 0 .5-1.4 9.1 9.1 0 0 1 -2.3-1.5c-.6 1.8-3 2.4-4.4 1.9s-2.9-3.1-4.2-4.8a8.6 8.6 0 0 0 -4.4-2.8 1.8 1.8 0 0 0 -1.6.2l.7.2a4.3 4.3 0 0 1 -.1.5c2-1 4.4.6 5.7 3.7-4-1.7-4.5-1.6-7.3 1.5a3.7 3.7 0 0 1 1.6-5.2l-1.1-.3a6.2 6.2 0 0 0 -1.2 1.9c-.5 1.2-.8 1.4-1.8 1.3s-1-.1-1.4.2a.5.5 0 0 0 .1.8l2 .8c2.5 3.6 5 6.1 9.8 1 2.7 1.1 4.9 2.5 5.2 5.9s.6 4.5 1 6.7 1.3 5.6.5 8.5a2.2 2.2 0 0 0 .4 1.9c1.4 1.9 2.9 3.8 4.4 5.6l5.4 6.7c.1.1.1.4.2.5l-1 .3a.4.4 0 0 0 -.2.7l1.3 1.6a.6.6 0 0 0 .2-.5l-.3-.6c-.2-.5 0-.5.3-.7a59 59 0 0 1 6.2 5c3.2 3.1 6.1 6.5 9.3 9.6a19.3 19.3 0 0 0 3.7 2.3.7.7 0 0 0 -.2-.9l-1.4-.8-.8-.7c-.1-.2-.4-.5.2-.4 4.2 1.4 4.1 1.9 4.3 2.4s.2.3.2.4c0 3 1.2 4.6 4.3 6.1s4.1 2.1 6.1 3.2 5.4 4 6 7.5a8.3 8.3 0 0 0 4.4 6.3 9.6 9.6 0 0 1 3.6 3.3l6.9 8.7c-1.7 1.2-1.1 2.3 0 3.3l9.6 8.1 1.3 1.2a.4.4 0 0 1 -.2.7l-7.6 2.3c.1.3 0 .2.1.4l6.9-1.7a.7.7 0 0 1 .7.2l10.3 8.9a.3.3 0 0 1 -.2.5l-2.3.2v.4h2.3a1.4 1.4 0 0 1 1.1.6l2.6 3.2a20.9 20.9 0 0 0 -4.9 2.6c-.4.3-.1 1.3.1 2.3a1 1 0 0 0 .6.8h.1c-1.3-3.6 1.6-4.5 5.4-3.9-3.1 2.9-3.1 4.6.1 5.8-.4-1.3-2.9-1.9-1.5-3.7s3.3-1.8 5.9-.6c-2.9.3-3.7 1-3.4 3.3s-.1 3.2-3 3.3-6.1.4-9.2.6a3.2 3.2 0 0 1 -1.4-.2l-12.2-5.5a1.8 1.8 0 0 1 -.6-1.3c1.4-.8 2.9-2.3 4.2-2.1s4.1 1.5 6 2.5 3.7 2.3 2.8 5.1c.5-.8 1-1.8.7-2.2a43.5 43.5 0 0 0 -3.3-4.2l1.9-1.6c1.9-1.5 2.4-1.4 4 .5l1.1 1.3c-2.1-4.3-2.9-4.4-5.3-2.3s-3.8 2.6-6 .5c-.4-.4-1.2-.4-2-.7l6.2-3.1a3 3 0 0 0 .5-4.9l-2.4-2.3-.6 1.5c-.3.6-.5 1.5-.9 1.6a3.3 3.3 0 0 1 -1.8-.8c-.9-.7-1.6-1.7-2.5-2.4s-2.9-3.5-2.3-6.1a8.1 8.1 0 0 0 -.1-3.1c-1.1-6.8-5-11.8-10.5-15.6l-2.9-1.6c.4 1.9.2 8.3.1 14.1-.1 4.6-.2 8.8.1 10.1s2 5.5 5.1 6.2 2.7 2 3.6 3.4l-2-.6c.1 2.3 1.7 3 3.2 3.6a23.6 23.6 0 0 0 4.4 1.1c-3.7 4-6.9.4-10.5-1.1l-.3.4a32.6 32.6 0 0 0 1.5 3.2c1.4 2.7 2.2 3.3 2.2 4.9.7-2.8-2.4-4.6-2.8-7a39.7 39.7 0 0 0 5.8 2 3.7 3.7 0 0 1 2.9 2c1.4 2.6 2.8 5.2 4.1 7.8s1.1 2.7 1.8 4a1.8 1.8 0 0 0 3.1.3 19.5 19.5 0 0 0 3.3-4.4c1.1-2.5 3-2.8 5.3-2.9l8.9-.4a50.3 50.3 0 0 0 2.1 7 28.5 28.5 0 0 0 3.5 6.7c2.5 3.3 4.8 6.9 8.9 8.6s3.6 1.1 5-2.2a5.4 5.4 0 0 1 .7-1.3c2-2.9 1.4-6-1.1-8.8zm-118.5-138.8c0 .2.1.4.1.6l-1.8 1.3-1.7-2.4zm-1.2 3.4a2.7 2.7 0 0 1 -3.7-.6c2.3.7 4-.2 5.5-1.8l.4.5a13.7 13.7 0 0 1 -2.2 1.9zm59.4 69.2c1.4 1.9 4.7 2.3 4.6 5.9-2.5-1.5-4.1-3.2-4.6-5.9zm23.8 38.5c1 .7 2.4 1.2 1.4 3.6l-2.6-3.7a1.1 1.1 0 0 1 1.2.1zm-9.3-4 5.5 5.7c-2.8 1.5-3.4-1-4.6-2s-2.4-1.7-.9-3.7zm-1.1 2.8 3.9 4c-1.6 1.7-2.6.2-3.4-.7s-2.7-1.7-.5-3.3zm-1.5 6.6-2.5-2.6a.8.8 0 0 1 0-1.1l3.2 3.1zm-1.5-3.8c1.2-1 1.2-1 4.7 2.9-2.7 0-3.3-2-4.7-2.9zm4.4 7.2-1.8-2.9.3-.4 2.2 2 .5-.3-1.3-1.8.3-.5 2.8 1.8c.1-.1.3-.2.4-.4l-1.7-1.9c.7-.5 1.4-1.4 2.4-.1a13.6 13.6 0 0 0 1.2 1.2l.4-.4-1.2-1.4-.2-.3c1.8-2.4 2.3 1 4.1.8l-1.9-2.3c2-.6 2.4 1.4 3.7 2.5zm.6 5.5.6-.7 2.2 3.3zm7.3 2.9c.3.3 1 .5 1 .8s-.1 2.3-2.3 2.2zm-2.9 4.3 3.6-1 .2.4-4 2.3zm2.8 4.4a1.4 1.4 0 0 1 -1.3-.3c-.9-1-.4-2.5 1-3.2a11.1 11.1 0 0 1 .7 2.2c0 .5-.2 1.2-.4 1.3zm1-1.6c-.2-.6-.6-1.5-.4-1.7a6.7 6.7 0 0 1 2.1-.9c.1.3.3.5.4.8zm32.9.4c.7 1.2 2.6 2.1 3.3 3.3-1 0-2 .5-2.9.5s-2.7-2.6-.4-3.8zm-.7 13.1a11.9 11.9 0 0 1 -2.6-2.3c-.2-.3 1-1.3 1.5-2 2.8 1.2 2.8 1.2 1.1 4.3zm-1.4-15.7c.3.6 1 1.2.9 1.7s-.9.9-1.5 1.3l-.7-.5.7-2.5zm-11.4-.2 5.5.6c-3 1.9-5 1.7-5.5-.6zm.6 2.6 4.1-.2.3.5a10 10 0 0 1 -2.1 1c-.9.1-2.2.4-2.3-1.3zm.7 2h5a17.1 17.1 0 0 1 -1.1 1.4c0 .1-.1.1-.1.2l-.6.5a2.8 2.8 0 0 1 -2.2-.1c-.5-.4-.6-1.2-1-2zm3.6 6-1.7-2.4c.1-.2.1-.4.2-.6s1.7.2 2.1.6.2 1.5.3 2.2zm3.1 3.8c-.8-1-1.7-2-2.5-3.1l.4-.6a24 24 0 0 1 3.1 2.1c.2.2-.2 1-.3 1.5zm2.5-5.3a6.1 6.1 0 0 1 2-.9c.1.5.2.9.3 1.7l-2.2.8c0-.5-.3-1.4-.1-1.6zm-1.2 5.1 4.2 2.5-.3 1c-2.6-.3-4.2-1.8-3.9-3.5zm8.6 0a13.4 13.4 0 0 1 -1.2 2.4l-1.6 2.1-1.6-1.9c-.3-2.1 1.6-2.8 2.6-4s1.1-.1 1.4.1a1.7 1.7 0 0 1 .4 1.3zm-.1-7.4 1 4.2c-4-2-4-1.2-1-4.2z"/><path d="m83.4 82.6c-.9-1.6-1.7-3.3-2.8-5.3-1.2 1.3-3.6.7-2.9 2.9s2.5 3.7 5.7 2.4z" fill="none"/><path d="m70.7 70.3c-.4-.1-1 .3-1.4.6s-.2.7-.1.9 3.3 1.1 4.6-.2c-1.2-.5-2.1-1-3.1-1.3z" fill="none"/><path d="m85.7 89.8c-.3-1.6-.2-3.3-1-4.4s-2.4-.6-3.6-.8l-1.2-.4c-.4-.1-1.1-.2-1.3 0a2.2 2.2 0 0 0 -.4 1.7c.7 2.4 4.5 4.5 7.5 3.9z" fill="none"/><path d="m67 69.2a8.4 8.4 0 0 0 -2.4 1.9l.6.8 4.1-1.2c0-.2.1-.5.1-.7s-1.8-1-2.4-.8z" fill="none"/><path d="m82.9 117.6a3 3 0 0 0 3.7 1.4 33.6 33.6 0 0 1 -1.8-7.1.6.6 0 0 0 -1.1-.3c-.8.7-1.7 1.3-1.8 2.1a7.1 7.1 0 0 0 1 3.9z" fill="none"/><path d="m73.5 75.1c.2 1.5.3 2.6.4 3.7l2.4.3 2.4-3.4c-.1-.2-.1-.5-.2-.7z" fill="none"/><path d="m77 122.7c-.3-.4-.8-.7-1.1-1.1s-1.9-1.5-3.5-.1c.7 1.3 1.2 2.6 2 3.8s1.2 1.1 1.5.9a4.4 4.4 0 0 0 1.9-1.9c.1-.3-.5-1.1-.8-1.6z" fill="none"/><path d="m82 118.5-1.8 4c1.8.8 2.6-.1 2.9-1.4s-.5-1.4-1.1-2.6z" fill="none"/><path d="m82.9 117.6a3 3 0 0 0 3.7 1.4 33.6 33.6 0 0 1 -1.8-7.1.6.6 0 0 0 -1.1-.3c-.8.7-1.7 1.3-1.8 2.1a7.1 7.1 0 0 0 1 3.9z" fill="none"/><path d="m83.8 127.6a5.4 5.4 0 0 0 2.5 2.5 31.9 31.9 0 0 0 3.8-3.6c-1.6-2.2-1.7-5.8-6.2-5.7-.1 2.3-.5 4.6-.1 6.8z" fill="none"/><path d="m87.2 135.8 2.3-.4a33.7 33.7 0 0 0 -1.2-4.1 6.6 6.6 0 0 0 -1.7.2z" fill="none"/><path d="m79.5 111.6c.1 0 .1-.5.2-.8a2 2 0 0 0 0-1.1 2.9 2.9 0 0 0 -.3-.9 5.5 5.5 0 0 0 -3.9-3.6 22.6 22.6 0 0 1 -2.2-1.1c-.8-.2-1.8-.6-2.5-.3a2.3 2.3 0 0 0 -1.6 2.9c1.1 5.1 1.4 5.5 6.5 6.5h.6c1.7.7 2.9.4 3.2-1.6z" fill="none"/><path d="m82.7 129.1c-4.2 2.6-4.6 4.4-1.8 8.3a8.5 8.5 0 0 0 1.1 1.4c.7.5 1.9 1.5 2.1 1.3s2.7-1.3 2.4-3.2-.6-6-3.8-7.8z" fill="none"/><path d="m93.3 139.1c-2.6-2.5-3.2-2.5-6-.2a12.4 12.4 0 0 0 -1.8 1.4c-.3.4-.7 1.4-.5 1.7a15.9 15.9 0 0 0 7.8 6.2c.4-2.6.9-5 1.1-7.3a2.3 2.3 0 0 0 -.6-1.8z" fill="none"/><path d="m82.1 125.5a.8.8 0 0 0 -1-.6 1.5 1.5 0 0 0 -1 .3 30.7 30.7 0 0 0 -3.5 2.8c-.9.8-.5 2.7.7 3.4h.6a40.9 40.9 0 0 0 4.4-3.9c.3-.4 0-1.2-.2-2z" fill="none"/><path d="m79.5 114c-1.8 1.3-4.2 2.3-3.6 5.2.3 1.3 1.4 2.3 2.4 3.9 3.2-5.8 3.5-6.5 1.2-9.1z" fill="none"/><path d="m94.2 141.6a47.3 47.3 0 0 0 .6-5.5 5.3 5.3 0 0 1 -1.1 2.1c-1-.8-2.9-1.5-3-2.5s-1.2-5.2.3-7.6c-2.1-4.8-4.3-11-4.6-11.9s0-11.3 0-13.5.9-11.8-1.2-16.9-4.1-8.7-6.3-11-10.9-5.9-12.1-6.2-3.5 3.8-3.5 3.8a2.7 2.7 0 0 0 -.7 1.3v.3a3 3 0 0 0 -.2 1h.2c0 .4-.1.9-.1 1.4l-.2-.2v2.2h.1v1.6c.7 5.6 3 12.8 3.8 16.8 1.1 6.3 3.5 12 4.1 17 1.5.6 3.3.5 5 .7 0 3.4-1 5-3.5 5.8v-.3c1.1 3.2 3 7.2 6.6 14 6.1 11.7 14.9 14.9 14.9 14.9s-.2 0 .9-7.3zm-5.9-10.3a29.1 29.1 0 0 1 1.2 4.1l-2.3.4-.6-4.3a6.6 6.6 0 0 1 1.7-.2zm1.8-4.8a26 26 0 0 1 -3.8 3.6c-.2.2-2.4-1.5-2.5-2.5s0-4.5 0-6.9c4.5 0 4.7 3.6 6.3 5.8zm-6.4-14.9a.7.7 0 0 1 1.1.3 33.6 33.6 0 0 0 1.8 7.1c-1.5.3-3 0-3.7-1.4a7.9 7.9 0 0 1 -1.1-3.9c.1-.8 1.1-1.5 1.9-2.1zm-3.5 10.9 1.8-4c.5 1.2 1.2 2 1.1 2.6s-1.1 2.2-2.9 1.4zm-15.1-50.6-.6-.8a8.4 8.4 0 0 1 2.4-1.9c.6-.2 1.5.5 2.3.7s-.1.5-.1.7zm4.1-.1c-.1-.2-.1-.8.1-.9s1-.7 1.4-.6a20.1 20.1 0 0 1 3.1 1.4c-1.3 1.2-4.1 1.1-4.6.1zm7.1 7.4-2.4-.3c-.1-1.1-.2-2.2-.4-3.7h5c.1.2.1.5.2.7s-1.5 2.1-2.4 3.3zm1.4 1c-.7-2.3 1.7-1.7 2.9-2.9l2.8 5.3c-3.2 1.3-4.8.7-5.7-2.4zm.9 3.9c.1-.2.8-.1 1.3 0l1.2.4c1.2.3 3 .1 3.6.8s.7 2.8 1 4.4c-3 .6-6.8-1.5-7.5-4-.2-.4.1-1.1.4-1.6zm-2.3 29.2h-.6c-5.1-.9-5.5-1.4-6.5-6.5a2.4 2.4 0 0 1 1.6-2.9 3.7 3.7 0 0 1 2.5.3c.8.2 1.4.9 2.2 1.1a5.5 5.5 0 0 1 3.9 3.6c.2.5.2.7.3.9a2 2 0 0 1 0 1.1c0 .3-.1.8-.2.8-.3 1.9-1.5 2.2-3.2 1.6zm-.5 12.8c-.3.1-1.2-.5-1.5-.9a34.8 34.8 0 0 1 -2-3.8c1.7-1.4 2.7-1.1 3.5.1s.8.7 1.1 1.1.9 1.3.8 1.6a4.4 4.4 0 0 1 -1.9 1.9zm2.5-3c-1-1.5-2.1-2.6-2.4-3.9-.7-2.9 1.8-3.8 3.6-5.2 2.3 2.6 2 3.3-1.2 9.1zm-.4 8.2h-.6a2.3 2.3 0 0 1 -.7-3.4 30.7 30.7 0 0 1 3.5-2.8 1.9 1.9 0 0 1 1-.3.9.9 0 0 1 1 .6c.2.8.5 1.6.2 1.9a33.1 33.1 0 0 1 -4.4 4zm6.2 8.9c-.2.2-1.4-.8-2.1-1.3a4.9 4.9 0 0 1 -1.1-1.4c-2.7-3.8-2.3-5.7 1.8-8.3 3.2 1.8 3.4 4.8 3.8 7.8s-1.4 2.3-2.4 3.2zm.9 1.8c-.2-.3.1-1.2.5-1.7a12.4 12.4 0 0 1 1.8-1.4c2.8-2.3 3.4-2.3 6 .2a2.4 2.4 0 0 1 .7 1.8c-.3 2.3-.7 4.7-1.1 7.3a15.7 15.7 0 0 1 -7.9-6.2z"/><path d="m23.2 4.2a4.3 4.3 0 0 1 .1-.5l-.7-.2-.5.4z" stroke="#000" stroke-miterlimit="10" stroke-width=".3"/></svg>