<svg height="34.2" viewBox="0 0 34.2 34.2" width="34.2" xmlns="http://www.w3.org/2000/svg"><g fill="#fff"><path d="m33.1 16.5a16 16 0 0 0 -1.8-6.7l-.5-1-1.5-2.1a23.7 23.7 0 0 0 1.7-3.8c0-.5 0-1.1-1-.8s-1.1 1.3-1.5 2l-.7 1.2a15.9 15.9 0 0 0 -10.5-4.2h-.2a16 16 0 0 0 -15.9 15.3h-.1a11.2 11.2 0 0 0 .3 3.2c.8 4.8 4.1 8.9 7.3 8.8h.1a3.4 3.4 0 0 0 1.4-.3 11.4 11.4 0 0 0 2.9-1.9l1.3-1.3a6.8 6.8 0 0 0 .4 2.8c.1.4.7.8 1 .7a5.3 5.3 0 0 0 1.3-1.1 24.7 24.7 0 0 0 2.8-2.8c.1.1-1.3 3.6-1.3 3.7s-1.3 3.6-1.3 4.6l.2.3h.3a1.1 1.1 0 0 0 .3-.5c.5-.9 1.1-2.8 1.4-3.4a27.3 27.3 0 0 1 1.8-4.4l.8-.2c.6-.2 1-.9 1.3-1h.5a1.1 1.1 0 0 1 .2.5c0 .1-.3 1.3-.5 2.2a3.7 3.7 0 0 0 -.1.8.9.9 0 0 0 .1.5c0 .1.1.1.1.2h.3l1.1.3h.4c3 .1 6.1-3.6 7.2-8.1a11.4 11.4 0 0 0 .4-3.5zm-13.8 7.1c-.8.8-1.3 1.9-2.4 2.3s-.6 0-.9-.2 3.5-8 3.3-8.7a.6.6 0 0 0 -.7-.2c-1 .2-1.4 2.4-2.5 4.3a11.6 11.6 0 0 1 -2 2.5 9.2 9.2 0 0 1 -3.2 2.7 4 4 0 0 1 -1.5.3 11.7 11.7 0 0 1 -3.6-1.2 9.7 9.7 0 0 1 -3.9-5.4 16.3 16.3 0 0 1 -.3-3.1 15.5 15.5 0 0 1 15.3-15.3h.4a15.1 15.1 0 0 1 10.3 4.1c-1.1 2.3-1.8 4.6-2.7 6.8s-1.3 3.2-1.6 3.9a14.5 14.5 0 0 1 -1.1 2.5c-.8 1.5-1.9 3.1-2.9 4.7zm5-2h-.9l-.9.5a5.1 5.1 0 0 1 2.5-3.2s.7-.2.9.2-.8 2.2-1.6 2.5zm8-1.6a15.4 15.4 0 0 1 -.8 1.9 8.6 8.6 0 0 1 -4.4 4c-1 .4-1.3.4-1.5 0s.8-2.2.4-3.1a2 2 0 0 0 -.8-.8c.6-.7 1.8-1.5 2.3-2.1a2.8 2.8 0 0 0 .3-2.7c-.2-.5-.8-.5-1.5-.3a12.7 12.7 0 0 0 -2.3 1.6 4.9 4.9 0 0 0 .4-1c1.7-2.9 2.3-5.1 3.8-8.3l.8-2a15.6 15.6 0 0 1 3.6 9.7 16.3 16.3 0 0 1 -.3 3.1z"/><path d="m18.1 11.6c-.4-1-.2-2.3-.6-3.3a.4.4 0 0 0 -.5-.1c-.7.3-1.8.8-1.4 1.7s2.4 4.6 3.8 4 .3-.3.2-.5-1.1-.8-1.5-1.8z"/></g></svg>